<svg xmlns="http://www.w3.org/2000/svg" viewBox="0 0 166.675 276.993">
  <defs>
    <style>
      .cls-1 {
        fill: #242424;
      }

      .cls-1, .cls-2, .cls-3, .cls-4, .cls-5, .cls-6, .cls-7, .cls-8 {
        fill-rule: evenodd;
      }

      .cls-2 {
        fill: #fee7de;
      }

      .cls-3 {
        fill: #6aa2ff;
      }

      .cls-4 {
        fill: #d39689;
      }

      .cls-5 {
        fill: #4285f4;
      }

      .cls-6 {
        fill: #6b6b6b;
      }

      .cls-7 {
        fill: #c0deec;
      }

      .cls-8 {
        fill: #2b2b2b;
      }
    </style>
  </defs>
  <g id="Group_66" data-name="Group 66" transform="translate(-236.401 -3197.007)">
    <path id="Path_362" data-name="Path 362" class="cls-1" d="M486.058,6599.742a20.864,20.864,0,0,1-3.13-.224c-4.006-.576-8.084-.9-12.072-1.729-9.175-1.921-18.331-2.049-27.578-2.049-3.666,0-7.333-.063-11-.063a156.955,156.955,0,0,0-15.989.672,241.106,241.106,0,0,1-24.949,1.024h-4.006c-4.614,0-9.193.448-13.807.768s-9.121.832-13.717.832h-1.252c-4.6-.1-11.589-2.208-14.862-7.554-1.949-3.168-1.681-10.818.268-13.891a9.822,9.822,0,0,1,3.344-3.041c3.183-1.824,6.438-1.824,9.783-1.855h.125a17.258,17.258,0,0,1,6.9,1.728,38.771,38.771,0,0,0,6.1,1.824,18.962,18.962,0,0,0,5.222.705,19.68,19.68,0,0,0,3.38-.288c2.969-.513,5.956-.736,8.924-1.121,3.684-.479,7.3-1.536,10.981-2.112,1.842-.288,3.648-.992,5.473-1.312A86.433,86.433,0,0,1,418.831,6571h1.18c2.325,0,4.65.032,6.975.032h5.669c3.809,0,29.295,3.1,31.316,3.2,1.735.1,3.47.128,5.2.128,3.094,0,6.188-.1,9.282-.128h1.27c6.9,0,30.958.513,29.223,10.563-.662,3.873-4.525,8.9-6.689,10.53a18.875,18.875,0,0,1-8.728,3.681,54.79,54.79,0,0,1-7.511.705Z" transform="translate(-105.963 -3125.742)"/>
    <g id="Group_28" data-name="Group 28" transform="matrix(0.966, -0.259, 0.259, 0.966, -1125.922, 296.08)">
      <path id="Path_335" data-name="Path 335" class="cls-2" d="M7448.119,3373.6a1.473,1.473,0,0,0-.289.428c-.652,1.53.072,2.631,0,4.223-.073.734-1.954,1.591-.507,2.509.507.306,1.953.98,3.038,1.653a10.767,10.767,0,0,1,3.688,4.958c2.749,7.221,3.11,14.872,3.183,22.461a2.677,2.677,0,0,1-.218,1.285,3.764,3.764,0,0,1-2.313,1.163,87.6,87.6,0,0,0-11.861,3.794c-3.4,1.407-6.728,3.122-9.042,5.631s-3.543,6-2.313,9a8.491,8.491,0,0,0,5.93,4.712c6.8,1.592,13.164-5.2,17.721-8.568a104.823,104.823,0,0,0,12.079-10.159,4.785,4.785,0,0,0,1.156-1.469,4.2,4.2,0,0,0,.072-1.9,199.1,199.1,0,0,0-5.062-24.113c-.579-2.2-2.46-3.855-2.966-5.875-.361-1.286.506-2.51.506-3.795a11.374,11.374,0,0,0-.867-4.1c-1.086-2.325-4.052-3-6.511-3.795a3.172,3.172,0,0,0-1.663-.245,5,5,0,0,0-2.459,1.224,6.144,6.144,0,0,0-1.157,1.1Z" transform="translate(-6783.769 -159.056)"/>
      <path id="Path_336" data-name="Path 336" class="cls-3" d="M7445.092,3769.245a63.184,63.184,0,0,0,11.935-11.628,9.161,9.161,0,0,0,1.88-3.305,8.822,8.822,0,0,0-.145-3.06c-1.085-5.875-2.1-11.689-3.182-17.565-.146-.857-.436-1.836-1.375-2.081a2.83,2.83,0,0,0-1.735.122c-12.369,3.121-5.931,3.611-9.765,11.322-3.616,7.161-9.62,5.692-15.551,1.9-3.832-2.509-8.969-2.876-13.814-3.243a7.818,7.818,0,0,0-4.122.428,6.182,6.182,0,0,0-2.532,2.876A44.605,44.605,0,0,0,7402.78,3775a3.771,3.771,0,0,0,1.157,2.264,5.266,5.266,0,0,0,2.82.734c8.1.674,16.491.735,24.158-1.591a46.655,46.655,0,0,0,14.1-7.16Z" transform="translate(-6772.134 -497.178)"/>
      <path id="Path_337" data-name="Path 337" class="cls-4" d="M8394.4,6792l-3.4,11.751,8.244,1.714L8403,6792.49Z" transform="translate(-7787.692 -3370.36)"/>
      <path id="Path_338" data-name="Path 338" class="cls-5" d="M8330.093,6979l-7.665.611-2.678,1.53-.867,4.651,19.023,5.08a3.4,3.4,0,0,0-.652-5.936l-.795-.43-6.292-5.447Z" transform="translate(-7718.831 -3545.915)"/>
      <path id="Path_339" data-name="Path 339" class="cls-4" d="M9256.572,5869.529c-3.4-1.286-6.58-3.55-10.052-4.529-.435,2.325-1.013,4.589-1.521,6.915a61.276,61.276,0,0,0,12.874,4.958c-.434-2.449-1.086-4.9-1.372-7.284Z" transform="translate(-8704.328 -2500.092)"/>
      <path id="Path_340" data-name="Path 340" class="cls-5" d="M9410.983,5837.023c.29-.245.29-.307.578-.98.725-1.652,2.678-6.3.939-7.9-.288-.245-.432-.061-.723.062a40.08,40.08,0,0,0-12.583,6.181c-1.736,1.224-3.473,2.815-3.832,4.774a3.941,3.941,0,0,0,.5,2.264,15.444,15.444,0,0,0,1.663,2.938c.218.367.435.733.939.733,1.087.062,1.737-.979,2.026-1.835a5.285,5.285,0,0,1,1.3-2.57,4.473,4.473,0,0,1,1.228-.612c2.895-1.1,5.789-.979,8.029-3.122Z" transform="translate(-8870.529 -2465.382)"/>
      <path id="Path_341" data-name="Path 341" class="cls-6" d="M8221.7,4729.027c-8.026,9.608-18.588,13.158-31.027,15.3-14.176,2.387-25.821-.611-37.32-7.527.216-3.488,1.012-6.916,1.157-10.159,13.381,3.06,20.033,3.183,30.522-6.3,15.115-13.709,4.629-36.781,10.486-54.468a16.851,16.851,0,0,1,3.037-5.754c17.07-19.828,41.3-3.427,42.1,16.158.724,17.563-6.943,38.372-18.951,52.692Z" transform="translate(-7608.194 -1360.508)"/>
      <path id="Path_342" data-name="Path 342" class="cls-6" d="M7867.142,4621.646a65.9,65.9,0,0,1,7.017-16.646,170.729,170.729,0,0,1,35.368,9.608c10.632,4.1,17.068,7.527,14.32,17.809-4.991,18.911-.724,36.659-1.88,55.509-.724,10.955-7.09,19.646-13.889,28.581a337.473,337.473,0,0,0-21.554,31.7c-3.832-.795-7.738-1.529-11.572-2.325.146-15.3,5.859-30.11,9.621-45.044,2.6-10.4,4.267-21.236,2.458-31.824-2.024-11.628-10.271-8.812-16.778-16.584-6.295-7.591-5.933-19.769-2.968-30.724Z" transform="translate(-7271.141 -1317.204)"/>
      <path id="Path_343" data-name="Path 343" class="cls-5" d="M7863.358,3668.434a26.279,26.279,0,0,0-4.049,2.448c-1.158.8-2.316,1.53-3.546,2.325-4.05,2.693-6.58,7.161-8.823,10.955-11.645,20.135-19.746,48.838-18.589,71.6,19.1,3.917,42.313,2.693,62.058,2.938,1.952,0,4.122-.061,5.353-1.285a4.771,4.771,0,0,0,1.084-2.754c2.532-14.015,1.737-29.56.94-43.881a137.257,137.257,0,0,0-2.17-17.993c-1.229-6.3-2.676-13.1-7.306-18.36-4.917-5.631-15.621-9.425-23.578-6.549l-1.3.551Z" transform="translate(-7242.548 -436.514)"/>
      <path id="Path_344" data-name="Path 344" class="cls-2" d="M8035.25,3131.353v-5.875a7.943,7.943,0,0,1-1.229-.8c-7.306-5.385-16.636-30.6,5.859-33.109,20.4-2.265,15.332,20.38,9.764,29.376a14.833,14.833,0,0,1-3.617,4.1c-1.012.8-1.229.612-1.3,1.653s.939,2.325,1.012,3.489a4.118,4.118,0,0,1-1.229,3.3,5.406,5.406,0,0,1-2.169,1.1,7.6,7.6,0,0,1-4.051.122,4.53,4.53,0,0,1-3.111-3.489Z" transform="matrix(0.966, 0.259, -0.259, 0.966, -6323.786, -1874.09)"/>
      <path id="Path_348" data-name="Path 348" class="cls-2" d="M8952.074,3679a1.611,1.611,0,0,0-.57.061c-1.783.49-2.354,1.652-3.851,2.571-.714.428-2.639-.306-2.639,1.163,0,.551.285,1.9.356,3.06.072,1.714-1.071,3.917-2.282,5.508-2.354,3-12.7,8.874-10.628,13.219,4.992,10.159,16.689-9.914,18.188-11.506,1-1.04,2.639-1.224,3.782-2.02a14.19,14.19,0,0,0,3.208-3.121c1.5-2.142.285-4.529-.5-6.671a2.758,2.758,0,0,0-.785-1.285,4.92,4.92,0,0,0-2.637-.857A16.093,16.093,0,0,0,8952,3679Z" transform="translate(-636.167 -6292.887) rotate(60)"/>
      <path id="Path_349" data-name="Path 349" class="cls-3" d="M8329.876,3878.374a185.4,185.4,0,0,0,31.239-21.052c-2.854-2.632-6.49-7.161-11.483-6.3-7.488,1.285-11.483,8.751-20.54,5.692-7.989-2.693-10.415-12-18.117-15.239a4.172,4.172,0,0,0-2.568-.429,3.684,3.684,0,0,0-1.566.8c-13.625,8.323,1.28,27.785,5.42,36.536,1.067,2.264,2.639,4.9,5.419,5.2,1.783.245,3.566-.612,5.136-1.407,2.354-1.224,4.708-2.448,6.989-3.733Z" transform="translate(-211.491 -5861.46) rotate(60)"/>
      <path id="Path_350" data-name="Path 350" class="cls-7" d="M8851,4106Z" transform="translate(-8268.957 -848.743)"/>
      <path id="Path_351" data-name="Path 351" class="cls-8" d="M5227.938,4132.847a2,2,0,0,1,.23.615c.308,1.115-.038,2.345.231,3.459.461,1.769,2.421,2.96,2.574,4.8.154,1.5-.961,2.805-1.153,4.3-.192,1.614.73,3.229.461,4.843a10.337,10.337,0,0,1-2.191,4.343c.27-.346,2.614-.038,3.268-.346a2.485,2.485,0,0,0,1.46-1.807c.346-.961.192-1.921.691-2.882.615-1.191,1.769-2,2.229-3.267.653-1.729-.154-3.65.038-5.5.309-2.768,2.883-5.227,2.229-7.917-.384-1.576-1.845-2.69-2.575-4.151a19.166,19.166,0,0,1-1.077-3.574,4.159,4.159,0,0,0-2.19-2.843,17.145,17.145,0,0,0-2.037-.384c-1.152-.308-2.075-1.192-3.151-1.653-1.576-.653-4.535.769-5.572,2.076s-.653,2.459.23,3.728c1.46,2.113,5.188,3.689,6.341,6.072Z" transform="matrix(0.966, 0.259, -0.259, 0.966, -3333.474, -2140.189)"/>
      <path id="Path_352" data-name="Path 352" class="cls-8" d="M4649.858,4060.958c-1,.653-2.229,1.076-3.19,1.845-1.845,1.5-2.344,4.035-2.575,6.418-.192,2.114-1.269,3.882-1.192,6.111a5.369,5.369,0,0,0,1.691,3.958c1.422,1.191,3.728,1.537,4.266,3.305.577,1.922-1.5,4.112-.461,5.842.577.922,1.845,1.153,2.729,1.845a8.052,8.052,0,0,1,2,3.075,3.684,3.684,0,0,0,2.652,2.344,10,10,0,0,0-.346-5.111c-.385-1.038-1.614-2.959-.5-3.958.73-.846,2.306-1.038,2.42-2.152a2.615,2.615,0,0,0-.538-1.46,6.356,6.356,0,0,1-.038-5.88,8.2,8.2,0,0,1,4.458-3.958c2.229-.884,1.921-1.422,2.69-3.42.692-1.845,1.807-2.19,3.574-2.767a3.617,3.617,0,0,0,2.768-2.229c.5-1,1.076-2.229.576-3.42a7.447,7.447,0,0,0-2-2.383c-1.614-1.46-3.458-2.959-5.649-2.959-1.191,0-2.383.5-3.575.461a16.9,16.9,0,0,1-2.382-.346,6.083,6.083,0,0,0-4,.922c-1.191.73-1.191,1.614-1.922,2.729a4.491,4.491,0,0,1-1.384,1.307Z" transform="matrix(0.966, 0.259, -0.259, 0.966, -2812.843, -1936.248)"/>
      <path id="Path_353" data-name="Path 353" class="cls-8" d="M4376.417,3732.916c.307-1.307.307-3-.922-3.536-.653-.308-1.46-.077-2.152-.269-1.5-.423-1.883-2.268-2.575-3.651a1.474,1.474,0,0,0-.423-.538,1.642,1.642,0,0,0-.961-.038c-1.5.077-2.537-1.5-3.92-2.114a3.56,3.56,0,0,0-4.65,1.922c-.269.73-.308,1.537-.538,2.229-1.038,2.959-5.534,3.92-5.88,7.033-.23,2.114,1.691,4.266.73,6.149-.615,1.191-2.268,1.96-2.191,3.305a1.828,1.828,0,0,0,1.807,1.576,3.878,3.878,0,0,0,2.383-.884c1.115-.845,1.96-1.922,3.036-2.806a4.717,4.717,0,0,1,3.766-1.307c1.307.269,2.422,1.384,3.767,1.268,1.076-.115,1.921-1,2.959-1.191a8.76,8.76,0,0,1,2.959.423c1,.115,2.267-.308,2.345-1.307.038-.231-.039-.5.077-.73.269-.615,1.345-.5,1.614-1.153-.461-.845-1.23-.615-1.5-1.691a5.656,5.656,0,0,1,.269-2.652Z" transform="matrix(0.966, 0.259, -0.259, 0.966, -2626.526, -1554.31)"/>
    </g>
  </g>
</svg>
