<svg xmlns="http://www.w3.org/2000/svg" viewBox="0 0 152.808 282.108">
  <defs>
    <style>
      .cls-1 {
        fill: #242424;
      }

      .cls-1, .cls-2, .cls-3, .cls-4, .cls-5, .cls-6, .cls-7, .cls-8 {
        fill-rule: evenodd;
      }

      .cls-2 {
        fill: #efbfa5;
      }

      .cls-3 {
        fill: #2ec5b6;
      }

      .cls-4 {
        fill: #1a3151;
      }

      .cls-5 {
        fill: #fff;
      }

      .cls-6 {
        fill: #444;
      }

      .cls-7 {
        fill: #3bdccc;
      }

      .cls-8 {
        fill: #c1c1c1;
      }
    </style>
  </defs>
  <g id="Group_67" data-name="Group 67" transform="translate(-1185.564 -3188.119)">
    <path id="Path_363" data-name="Path 363" class="cls-1" d="M443.279,6601.929c-3.666,0-7.333-.08-11-.08a125.842,125.842,0,0,0-15.989.84,193.232,193.232,0,0,1-24.949,1.281h-4.006c-4.614,0-9.193.56-13.807.959s-9.121,1.04-13.717,1.04h-1.252c-4.6-.119-11.589-2.76-14.862-9.442-1.949-3.96-1.681-13.523.268-17.364a11.013,11.013,0,0,1,3.344-3.8c3.183-2.28,6.438-2.28,9.783-2.319h.125a14.553,14.553,0,0,1,6.9,2.16,33.317,33.317,0,0,0,6.1,2.28,15.439,15.439,0,0,0,5.222.881,15.857,15.857,0,0,0,3.38-.36c2.969-.641,5.956-.92,8.924-1.4,3.684-.6,7.3-1.92,10.981-2.641,1.842-.359,3.648-1.24,5.473-1.641A69.518,69.518,0,0,1,418.831,6571h1.18c2.325,0,4.65.04,6.975.04h5.669c3.809,0,29.295,3.881,31.316,4,1.735.119,3.47.16,5.2.16,3.094,0,6.188-.12,9.282-.16h1.27c3.293,0,8.471,14.892,0,21.485C470.966,6603.348,448.115,6601.929,443.279,6601.929Z" transform="translate(854.037 -3135.742)"/>
    <g id="Group_29" data-name="Group 29" transform="translate(72 141)">
      <path id="Path_29" data-name="Path 29" class="cls-2" d="M11671,9930l.353,20.5c-.14,5.671.39,11.342.706,17.014.314,5.249-.74,10.673,1.761,15.569.774,1.515,2.466,2.607,3.733.845.985-1.373.527-3.733.774-5.283,1.8-11.869,5.178-23.46,6.871-35.366,1.761-12.47-3.066-12.119-14.162-13.246Z" transform="translate(-10470.555 -6678.779)"/>
      <path id="Path_30" data-name="Path 30" class="cls-3" d="M11668.3,11317.705l-1.3,3.417,6.481,5.707,5.918.245,1.938-3.134-8-6.939Z" transform="translate(-10466.697 -8016.921)"/>
      <path id="Path_31" data-name="Path 31" class="cls-2" d="M10804.593,9903.164l-3.733,20.149c-1.3,9.018-4.228,17.788-5.531,26.807-.281,2.078-.142,4.333-1.021,6.307-.846,1.9-2.5,1.973-3.981.7-1.973-1.727-1.057-4.861-1.02-7.222.246-15.816-1.022-31.423-1.306-47.239,0-.211,0-.458.179-.562.14-.106,8.563-7.949,8.739-7.949,1.55.106,7.605,9.5,7.675,9.041Z" transform="matrix(0.259, 0.966, -0.966, 0.259, 7947.096, -9729.284)"/>
      <path id="Path_32" data-name="Path 32" class="cls-3" d="M10768.044,11361l-2.044,3.03,5.04,7.01,5.7,1.585,2.572-2.642-6.2-8.561Z" transform="matrix(0.259, 0.966, -0.966, 0.259, 9312.232, -10073.099)"/>
      <path id="Path_33" data-name="Path 33" class="cls-4" d="M10494.853,8446.67l-2.818-29.309-1.339-19.022-4.545-15.534-24.445-3.8-30.26,5.179-1.445,5.882,5.813,54.426,29.166,2.184-.387-33.887,4.51,20.994-.212,12.893Z" transform="translate(-9273.271 -5182.416)"/>
      <path id="Path_34" data-name="Path 34" class="cls-5" d="M10649.164,5959.7c-.036.986-.07,1.973-.07,2.958-.353,20.08.738,40.441.88,60.7a222.864,222.864,0,0,1,31.351-2.677c2.432-.035,13.493,1.656,15.007.212,2.078-1.973-.209-1.585-.069-4.157.212-3.312-1.41-6.023-.811-9.969.7-4.614,2.113-9.193,2.923-13.809a202.289,202.289,0,0,0,2.925-28.041c.281-8.349-.035-16.979-3.595-24.517-8.84-18.6-37.373-18.248-45.193,1.163-2.325,5.742-3.135,11.977-3.383,18.176Z" transform="translate(-9484.58 -2816.515)"/>
      <path id="Path_35" data-name="Path 35" class="cls-3" d="M11354.75,5893.156l-7.748,14.126q.633,21.4,1.2,42.765c.176,6.588.386,13.139.563,19.727.07,2.291.106,4.579.212,6.833.034,1.022-.246,2.748.316,3.593,1.268,1.8,5.918,1.234,7.926,1.41a34.763,34.763,0,0,1,9.334,1.585c1.974.739,3.841,1.832,5.954,2.113a1.866,1.866,0,0,0,1.375-.211,1.892,1.892,0,0,0,.528-1.444c.74-9.793.74-19.868,1.268-29.766.423-7.786,1.479-15.641,1.127-23.426a164.249,164.249,0,0,0-3.169-23.848c-.917-4.65-1.973-9.405-4.544-13.386-2.925-4.509-7.012-6.341-12.083-7.362-1.8-.353-8.455-2.889-7.328,1.2.563,2.009,3.769,4.544,5.108,6.13Z" transform="translate(-10157.971 -2776.042)"/>
      <path id="Path_36" data-name="Path 36" class="cls-3" d="M10468.9,5926.525l7.749,14.126c-.176,0-.985,34.593-1.057,36.918l-.738,26.631c-.071,2.465.246,5.354-.211,7.785-.67,3.381-4.229,2.712-7.292,2.995-6.658.6-13.633,1.726-20.327,1.409-1.937-.106.6-40.229.6-43.963,0-13.456-2.783-28.392,4.051-40.616,2.007-3.558,5.494-9.264,9.371-10.991,3.593-1.62,8.771-1.9,12.681-2.817l.212,2.536-5.038,6.024Z" transform="translate(-9288.996 -2808.109)"/>
      <path id="Path_37" data-name="Path 37" class="cls-6" d="M11452.082,5036.7a15.478,15.478,0,0,1,1.9,7.046,2.246,2.246,0,0,0,.6,1.8c.563.423.07,1.3.492.774.422-.563,1.9-2.466,1.973-3.171a28.871,28.871,0,0,0,0-4.931,6.958,6.958,0,0,0-1.373-3.98,8.368,8.368,0,0,0-2.008-1.515,11,11,0,0,0-3.348-1.515c-2.078-.387-3.346.352-1.514,1.8a13.049,13.049,0,0,1,3.275,3.664Z" transform="translate(-10255.336 -1952.451)"/>
      <path id="Path_38" data-name="Path 38" class="cls-2" d="M10991.046,5075.269c0,1.022-.173,2.043.706,2.819a2.727,2.727,0,0,0,1.549.6,9.663,9.663,0,0,0,4.369-.317,3.848,3.848,0,0,0,1.586-.845,1.978,1.978,0,0,0,.563-1.62c.034-.775.175-1.514.281-2.29a49.193,49.193,0,0,0,.353-5.073c2.5-.422,5.426-1.233,6.27-3.839a8.036,8.036,0,0,0,.281-2.607c.035-3.627.072-7.221.072-10.849a10.848,10.848,0,0,0-.424-3.7c-.739-2.043-2.676-3.241-4.543-4.016a16.285,16.285,0,0,0-14.761.915,8.215,8.215,0,0,0-2.959,2.96c-1.057,1.973-.917,4.438-.741,6.728.142,2.114.283,4.228.458,6.341.178,2.43.53,5.249,2.431,6.517.987.669,2.29.81,3.171,1.691,1.517,1.549.775,3.84,1.232,5.707a2.939,2.939,0,0,1,.072.809Z" transform="translate(-9807.299 -1963.159)"/>
      <path id="Path_39" data-name="Path 39" class="cls-6" d="M10999.654,5522.648a4.762,4.762,0,0,1-4.191.493c-.6-.176-.352-1.233.246-1.021a3.8,3.8,0,0,0,3.417-.388c.528-.353,1.057.564.494.916Zm9.019-5.107c-.034-.669-.317-2.642-1.338-1.41a2.263,2.263,0,0,0-.353,1.2,3.757,3.757,0,0,1-.143,1.269,2.3,2.3,0,0,1-2.253,1.338,2.221,2.221,0,0,1-1.058-.246,3.179,3.179,0,0,1-.809-.74c-.6-.669-1.165-1.338-1.762-2.007-1.022-1.163-3.031-.669-4.37-.493a8.429,8.429,0,0,0-4.4,1.726c-.142.105-.247.211-.387.317a4.669,4.669,0,0,1-.986.7,3.023,3.023,0,0,1-3.559-1.128c-.389-.493-.74-1.163-1.374-1.233a1.224,1.224,0,0,0-1.162.705,3.634,3.634,0,0,0-.353,1.479,11.086,11.086,0,0,0,.951,5.46c1.761,3.592,5.143,4.015,8.562,3.944l4.049-.1c2.468-.071,5.072-.176,7.151-1.585a8.943,8.943,0,0,0,3.383-5.671,12.062,12.062,0,0,0,.211-3.558Z" transform="translate(-9808.086 -2420.013)"/>
      <path id="Path_40" data-name="Path 40" class="cls-6" d="M10944.165,4873.882a17.285,17.285,0,0,0,.53-2.677,5.056,5.056,0,0,1-2.608.211v-1.55c0-.422-5.848-.739-6.34-.774-4.438-.352-8.526-.7-12.542,1.691a12.051,12.051,0,0,0-6.163,9.053,18.576,18.576,0,0,0,2.922,11.872c0-1.022-.6-3.382-.352-4.333a8.445,8.445,0,0,1,.952-2.748,11.239,11.239,0,0,1,3.98-4.157,22.192,22.192,0,0,1,8.666-2.924c2.782-.388,6.164-.74,8.911,0,1.3.352,1.55.669,2.325-.634a24.159,24.159,0,0,0,1.163-2.959c-.457,0-.915,0-1.374-.035Z" transform="translate(-9743.051 -1795.905)"/>
      <path id="Path_43" data-name="Path 43" class="cls-2" d="M10098.2,4516.753a5.1,5.1,0,0,0,1.55-5.671c-1.374-3.7-2.748-7.433-4.121-11.131-.776-2.079-2.256-4.579-2.256-6.764-.035-3.84,1.339-8.208,2.113-11.942.389-1.9.564-4.579,1.551-6.27.177-.317,2.713-2.607,2.677-2.677l-.387-.775-.774.388-.564-.176,1.833-1.761L10097.7,4468l-3.238.88c-.39,2.079-.284,4.262-1.164,6.2-.387.81-.882,1.549-1.339,2.359a45.625,45.625,0,0,0-1.973,4.193c-.6,1.374-1.515,2.606-2.077,3.945-1.3,2.994-2.606,6.023-3.911,9.053l6.023,19.657a5.18,5.18,0,0,0,8.208,2.5Z" transform="translate(-9884.885 2327.486) rotate(-20)"/>
      <path id="Path_355" data-name="Path 355" class="cls-2" d="M10085.962,4516.753a4.925,4.925,0,0,1-1.639-5.671c1.452-3.7,2.905-7.433,4.356-11.131.821-2.079,2.386-4.579,2.386-6.764.037-3.84-1.416-8.208-2.234-11.942-.411-1.9-.6-4.579-1.64-6.27-.187-.317-2.868-2.607-2.83-2.677l.409-.775.818.388.6-.176-1.937-1.761,2.237-1.973,3.424.88c.411,2.079.3,4.262,1.23,6.2.408.81.933,1.549,1.415,2.359a44.37,44.37,0,0,1,2.086,4.193c.632,1.374,1.6,2.606,2.2,3.945,1.377,2.994,2.756,6.023,4.135,9.053l-6.368,19.657a5.6,5.6,0,0,1-8.678,2.5Z" transform="translate(-6430.607 -4847.974) rotate(22)"/>
      <path id="Path_44" data-name="Path 44" class="cls-7" d="M10150.126,5557.682a24.393,24.393,0,0,1-6.623-4.227c-.881-.81-4.79-8.243-4.087-8.455-.071.036-.105.036-.175.07l-.528.211h-.071c-1.163-.106-3.276,1.057-4.437,1.409a84.2,84.2,0,0,1-11.2,3.17,34.376,34.376,0,0,0,1.585,9.828c.846,2.924,2.325,5.32,3.417,8.067a71.127,71.127,0,0,0,4.157,8.172c.352.669,4.051,8.279,3.84,8.313,2.148-.353,3.8-2.079,5.107-3.8,3.1-4.051,4.544-9.582,8.419-12.893,2.994-2.572,6.94-2.818,6.552-8.032a26.639,26.639,0,0,1-5.988-1.832Z" transform="translate(-10275.624 1363.958) rotate(-20)"/>
      <path id="Path_354" data-name="Path 354" class="cls-7" d="M10129.321,5557.682a26,26,0,0,0,7-4.227c.932-.81,5.064-8.243,4.321-8.455.075.036.111.036.185.07l.559.211h.075c1.23-.106,3.465,1.057,4.692,1.409a93,93,0,0,0,11.844,3.17,32.7,32.7,0,0,1-1.675,9.828c-.895,2.924-2.459,5.32-3.613,8.067a69.692,69.692,0,0,1-4.4,8.172c-.371.669-4.282,8.279-4.06,8.313-2.271-.353-4.022-2.079-5.4-3.8-3.278-4.051-4.8-9.582-8.9-12.893-3.165-2.572-7.338-2.818-6.927-8.032a29.351,29.351,0,0,0,6.331-1.832Z" transform="translate(-6095.587 -5833.281) rotate(22)"/>
      <path id="Path_59" data-name="Path 59" class="cls-8" d="M12281.037,4136.141a.212.212,0,0,0-.035-.141l.07.07-.07.071Z" transform="translate(-11059.07 -1088.881)"/>
    </g>
  </g>
</svg>
