<svg xmlns="http://www.w3.org/2000/svg" viewBox="0 0 453 298.169">
  <defs>
    <style>
      .cls-1 {
        fill: none;
        stroke: #fbbc05;
      }

      .cls-2 {
        fill: #242424;
      }

      .cls-10, .cls-11, .cls-12, .cls-13, .cls-14, .cls-15, .cls-16, .cls-17, .cls-18, .cls-2, .cls-20, .cls-21, .cls-22, .cls-23, .cls-24, .cls-25, .cls-26, .cls-27, .cls-28, .cls-29, .cls-3, .cls-30, .cls-31, .cls-32, .cls-33, .cls-34, .cls-35, .cls-36, .cls-37, .cls-38, .cls-39, .cls-4, .cls-5, .cls-6, .cls-7, .cls-8, .cls-9 {
        fill-rule: evenodd;
      }

      .cls-3 {
        fill: #e5d1bd;
      }

      .cls-4 {
        fill: #9366d6;
      }

      .cls-5 {
        fill: #cba27a;
      }

      .cls-19, .cls-6 {
        fill: #2ec5b6;
      }

      .cls-7 {
        fill: #1a3151;
      }

      .cls-8 {
        fill: #fff;
      }

      .cls-9 {
        fill: #444;
      }

      .cls-10 {
        fill: #3bdccc;
      }

      .cls-11 {
        fill: #eacdb0;
      }

      .cls-12 {
        fill: #e25b45;
      }

      .cls-13 {
        fill: #cf4630;
      }

      .cls-14 {
        fill: #6b6b6b;
      }

      .cls-15 {
        fill: #414141;
      }

      .cls-16 {
        fill: #c1c1c1;
      }

      .cls-17 {
        fill: #7d35ea;
      }

      .cls-18 {
        fill: #f7f7f7;
      }

      .cls-20 {
        fill: #ea4335;
      }

      .cls-21 {
        fill: #707070;
      }

      .cls-22 {
        fill: #babcbe;
      }

      .cls-23 {
        fill: #fbbc05;
      }

      .cls-24 {
        fill: #eed5d5;
      }

      .cls-25 {
        fill: #292949;
      }

      .cls-26 {
        fill: #373d7a;
      }

      .cls-27 {
        fill: #8498c9;
      }

      .cls-28 {
        fill: #2e304d;
      }

      .cls-29 {
        fill: #2b2b2b;
      }

      .cls-30 {
        fill: #6aa2ff;
      }

      .cls-31 {
        fill: #2069e2;
      }

      .cls-32 {
        fill: #4285f4;
      }

      .cls-33 {
        fill: #d8d6e7;
      }

      .cls-34 {
        fill: #2d2b55;
      }

      .cls-35 {
        fill: #b1b1b2;
      }

      .cls-36 {
        fill: #ddd;
      }

      .cls-37 {
        fill: #f6f7f7;
      }

      .cls-38 {
        fill: #edeced;
      }

      .cls-39 {
        fill: #c4c4c4;
      }
    </style>
  </defs>
  <g id="Group_11" data-name="Group 11" transform="translate(-953.86 -264.736)">
    <g id="Group_5" data-name="Group 5" transform="translate(1327.95 437.52)">
      <path id="Path_12" data-name="Path 12" class="cls-1" d="M0,0,9.592,17.313" transform="translate(0 13.453) rotate(-90)"/>
      <path id="Path_13" data-name="Path 13" class="cls-1" d="M2515.543-1025.526l9.593,17.313" transform="translate(-2511.682 1025.526)"/>
    </g>
    <path id="Path_26" data-name="Path 26" class="cls-2" d="M4270.583,10778.679c-2.818,0-5.636-.106-8.49-.389-10.92-1.056-21.946-1.585-32.831-3.1-24.9-3.451-49.81-3.663-74.926-3.663-9.969,0-19.938-.105-29.872-.105-14.513,0-28.991.211-43.47,1.2-22.58,1.584-45.195,1.832-67.81,1.832h-10.92c-12.505,0-25.011.81-37.516,1.374-12.576.563-24.764,1.514-37.27,1.514-1.127,0-2.254,0-3.382-.036-12.47-.174-31.492-3.944-40.369-13.6-5.284-5.742-4.58-19.516.74-25.012a26.357,26.357,0,0,1,9.088-5.46c8.666-3.275,17.507-3.275,26.561-3.346h.317c.634,0,1.268,0,1.867.035l-3.065,21,8.067,2.219,7.573-21.276c1.444.352,2.889.774,4.3,1.2,5.46,1.656,11.026,2.253,16.556,3.275.6.107,1.163.212,1.761.318l3.17,19.479,7.645-.668,1.057-17.895h.528a86.635,86.635,0,0,0,9.194-.5c3.628-.421,7.292-.7,10.955-.984a4.663,4.663,0,0,0,.141,1.442c.7,2.15,3.839,2.679,5.812,2.926a31.333,31.333,0,0,0,4.051.245c.388,0,.739,0,1.127-.035.352-1.867.739-3.7,1.2-5.529a8.406,8.406,0,0,1,.951-.071c6.517-.563,12.928-1.585,19.375-2.5-.141,2.149-.317,4.3-.563,6.446a34.113,34.113,0,0,0,5.038,1.339,17.27,17.27,0,0,0,2.888.316,4.1,4.1,0,0,0,3.523-1.374c.669-.95.845-2.782,1.127-3.875.388-1.479.775-2.994,1.127-4.472,4.086-.6,8.137-1.551,12.258-2.045a357.235,357.235,0,0,1,39.771-1.9h3.241c6.306,0,12.647.034,18.953.034h14.371c.212,6.271.353,12.542.282,18.882-.035,2.36-.95,5.5,1.022,7.222a3.1,3.1,0,0,0,1.972.88,2.214,2.214,0,0,0,2.008-1.549c.881-1.973.705-4.227,1.023-6.3.915-6.412,2.676-12.718,4.085-19.094,6.729.036,13.458.142,20.186.388.14,3.029.387,6.023.563,9.053.317,5.249-.739,10.674,1.762,15.57a2.885,2.885,0,0,0,2.219,1.762,1.942,1.942,0,0,0,1.515-.917c.986-1.373.528-3.733.775-5.284,1.021-6.623,2.5-13.1,3.91-19.655q6.182.368,12.365.95c5.425.529,10.814.211,16.169,1.409a87.87,87.87,0,0,0,16.31,2.573c4.72.174,9.44.246,14.16.246,8.42,0,16.839-.212,25.223-.212h3.452c18.775,0,84.12.881,79.435,19.022-1.8,6.976-12.258,16.028-18.141,18.951a66.838,66.838,0,0,1-23.708,6.623c-6.869.633-13.6,1.269-20.4,1.269Z" transform="translate(-2926.243 -10215.914)"/>
    <path id="Path_27" data-name="Path 27" class="cls-3" d="M6032.019,6792.162a1.278,1.278,0,0,0-.353-.248c-1.2-.528-2.149-.07-3.417-.21-.563-.07-1.232-1.409-2.008-.493-.282.352-.88,1.268-1.479,2.007a8.525,8.525,0,0,1-4.191,2.29,43.092,43.092,0,0,1-6.341,1.268,74.516,74.516,0,0,1-13.739.07,20.152,20.152,0,0,0-10.18-18.141,4.711,4.711,0,0,0-2.148-.7,3.807,3.807,0,0,0-1.833.528c-6.094,3.1-2.853,8.736-.458,13.386a65.712,65.712,0,0,0,5.108,8.385c2.677,3.7,6.552,4.438,10.991,4.3a65.422,65.422,0,0,0,14.091-1.516,52.815,52.815,0,0,0,6.34-2.324c2.114-.811,2.36.141,4.368-.106a18.034,18.034,0,0,0,3.382-.423c1.938-.633,2.607-2.641,3.382-4.332a2.226,2.226,0,0,0,.281-1.128,2.967,2.967,0,0,0-.916-1.726,4.767,4.767,0,0,0-.846-.846Z" transform="translate(-4954.906 -6406.023)"/>
    <path id="Path_28" data-name="Path 28" class="cls-4" d="M5721.641,6209.035c1.373,2.113,2.818,4.122,4.3,5.989,2.183,2.817,4.65,5.776,8.1,6.586a14.41,14.41,0,0,0,4.086.177c6.482-.316,12.963-.811,19.445-1.444a32.919,32.919,0,0,0-.105-10.181,3.937,3.937,0,0,0-1.128-2.571c-1.091-.916-2.712-.6-4.086-.246-2.254.6-4.474,1.2-6.728,1.8a2.934,2.934,0,0,1-2.185.036,3.291,3.291,0,0,1-.986-1.093c-4.932-7.855-7.5-15.358-10.251-24.165-1.2-3.875-2.5-7.891-5.213-10.885-5.812-6.446-16.557-2.606-16.169,6.341.422,10.215,5.108,20.819,10.885,29.7Z" transform="translate(-4692.365 -5819.27)"/>
    <path id="Path_29" data-name="Path 29" class="cls-5" d="M11671,9930l.353,20.5c-.14,5.671.39,11.342.706,17.014.314,5.249-.74,10.673,1.761,15.569.774,1.515,2.466,2.607,3.733.845.985-1.373.527-3.733.774-5.283,1.8-11.869,5.178-23.46,6.871-35.366,1.761-12.47-3.066-12.119-14.162-13.246Z" transform="translate(-10442.695 -9446.989)"/>
    <path id="Path_30" data-name="Path 30" class="cls-6" d="M11668.3,11317.705l-1.3,3.417,6.481,5.707,5.918.245,1.938-3.134-8-6.939Z" transform="translate(-10438.838 -10785.131)"/>
    <path id="Path_31" data-name="Path 31" class="cls-5" d="M10804.593,9903.164l-3.733,20.149c-1.3,9.018-4.228,17.788-5.531,26.807-.281,2.078-.142,4.333-1.021,6.307-.846,1.9-2.5,1.973-3.981.7-1.973-1.727-1.057-4.861-1.02-7.222.246-15.816-1.022-31.423-1.306-47.239,0-.211,0-.458.179-.562a.778.778,0,0,1,.492-.106c1.55.106,15.853,1.656,15.922,1.2Z" transform="translate(-9590.8 -9419.977)"/>
    <path id="Path_32" data-name="Path 32" class="cls-6" d="M10768.044,11361l-2.044,3.03,5.04,7.01,5.7,1.585,2.572-2.642-6.2-8.561Z" transform="translate(-9569.575 -10827.582)"/>
    <path id="Path_33" data-name="Path 33" class="cls-7" d="M10494.853,8446.67l-2.818-29.309-1.339-19.022-4.545-15.534-24.445-3.8-30.26,5.179-1.445,5.882,5.813,54.426,29.166,2.184-.387-33.887,4.51,20.994-.212,12.893Z" transform="translate(-9245.412 -7950.625)"/>
    <path id="Path_34" data-name="Path 34" class="cls-8" d="M10649.164,5959.7c-.036.986-.07,1.973-.07,2.958-.353,20.08.738,40.441.88,60.7a222.864,222.864,0,0,1,31.351-2.677c2.432-.035,13.493,1.656,15.007.212,2.078-1.973-.209-1.585-.069-4.157.212-3.312-1.41-6.023-.811-9.969.7-4.614,2.113-9.193,2.923-13.809a202.289,202.289,0,0,0,2.925-28.041c.281-8.349-.035-16.979-3.595-24.517-8.84-18.6-37.373-18.248-45.193,1.163-2.325,5.742-3.135,11.977-3.383,18.176Z" transform="translate(-9456.72 -5584.725)"/>
    <path id="Path_35" data-name="Path 35" class="cls-6" d="M11354.75,5893.156l-7.748,14.126q.633,21.4,1.2,42.765c.176,6.588.386,13.139.563,19.727.07,2.291.106,4.579.212,6.833.034,1.022-.246,2.748.316,3.593,1.268,1.8,5.918,1.234,7.926,1.41a34.763,34.763,0,0,1,9.334,1.585c1.974.739,3.841,1.832,5.954,2.113a1.866,1.866,0,0,0,1.375-.211,1.892,1.892,0,0,0,.528-1.444c.74-9.793.74-19.868,1.268-29.766.423-7.786,1.479-15.641,1.127-23.426a164.249,164.249,0,0,0-3.169-23.848c-.917-4.65-1.973-9.405-4.544-13.386-2.925-4.509-7.012-6.341-12.083-7.362-1.8-.353-8.455-2.889-7.328,1.2.563,2.009,3.769,4.544,5.108,6.13Z" transform="translate(-10130.111 -5544.252)"/>
    <path id="Path_36" data-name="Path 36" class="cls-6" d="M10468.9,5926.525l7.749,14.126c-.176,0-.985,34.593-1.057,36.918l-.738,26.631c-.071,2.465.246,5.354-.211,7.785-.67,3.381-4.229,2.712-7.292,2.995-6.658.6-13.633,1.726-20.327,1.409-1.937-.106.6-40.229.6-43.963,0-13.456-2.783-28.392,4.051-40.616,2.007-3.558,5.494-9.264,9.371-10.991,3.593-1.62,8.771-1.9,12.681-2.817l.212,2.536-5.038,6.024Z" transform="translate(-9261.136 -5576.319)"/>
    <path id="Path_37" data-name="Path 37" class="cls-9" d="M11452.082,5036.7a15.478,15.478,0,0,1,1.9,7.046,2.246,2.246,0,0,0,.6,1.8c.563.423.07,1.3.492.774.422-.563,1.9-2.466,1.973-3.171a28.871,28.871,0,0,0,0-4.931,6.958,6.958,0,0,0-1.373-3.98,8.368,8.368,0,0,0-2.008-1.515,11,11,0,0,0-3.348-1.515c-2.078-.387-3.346.352-1.514,1.8a13.049,13.049,0,0,1,3.275,3.664Z" transform="translate(-10227.477 -4720.661)"/>
    <path id="Path_38" data-name="Path 38" class="cls-5" d="M10991.046,5075.269c0,1.022-.173,2.043.706,2.819a2.727,2.727,0,0,0,1.549.6,9.663,9.663,0,0,0,4.369-.317,3.848,3.848,0,0,0,1.586-.845,1.978,1.978,0,0,0,.563-1.62c.034-.775.175-1.514.281-2.29a49.193,49.193,0,0,0,.353-5.073c2.5-.422,5.426-1.233,6.27-3.839a8.036,8.036,0,0,0,.281-2.607c.035-3.627.072-7.221.072-10.849a10.848,10.848,0,0,0-.424-3.7c-.739-2.043-2.676-3.241-4.543-4.016a16.285,16.285,0,0,0-14.761.915,8.215,8.215,0,0,0-2.959,2.96c-1.057,1.973-.917,4.438-.741,6.728.142,2.114.283,4.228.458,6.341.178,2.43.53,5.249,2.431,6.517.987.669,2.29.81,3.171,1.691,1.517,1.549.775,3.84,1.232,5.707a2.939,2.939,0,0,1,.072.809Z" transform="translate(-9779.439 -4731.369)"/>
    <path id="Path_39" data-name="Path 39" class="cls-9" d="M10999.654,5522.648a4.762,4.762,0,0,1-4.191.493c-.6-.176-.352-1.233.246-1.021a3.8,3.8,0,0,0,3.417-.388c.528-.353,1.057.564.494.916Zm9.019-5.107c-.034-.669-.317-2.642-1.338-1.41a2.263,2.263,0,0,0-.353,1.2,3.757,3.757,0,0,1-.143,1.269,2.3,2.3,0,0,1-2.253,1.338,2.221,2.221,0,0,1-1.058-.246,3.179,3.179,0,0,1-.809-.74c-.6-.669-1.165-1.338-1.762-2.007-1.022-1.163-3.031-.669-4.37-.493a8.429,8.429,0,0,0-4.4,1.726c-.142.105-.247.211-.387.317a4.669,4.669,0,0,1-.986.7,3.023,3.023,0,0,1-3.559-1.128c-.389-.493-.74-1.163-1.374-1.233a1.224,1.224,0,0,0-1.162.705,3.634,3.634,0,0,0-.353,1.479,11.086,11.086,0,0,0,.951,5.46c1.761,3.592,5.143,4.015,8.562,3.944l4.049-.1c2.468-.071,5.072-.176,7.151-1.585a8.943,8.943,0,0,0,3.383-5.671,12.062,12.062,0,0,0,.211-3.558Z" transform="translate(-9780.227 -5188.223)"/>
    <path id="Path_40" data-name="Path 40" class="cls-9" d="M10944.165,4873.882a17.285,17.285,0,0,0,.53-2.677,5.056,5.056,0,0,1-2.608.211v-1.55c0-.422-5.848-.739-6.34-.774-4.438-.352-8.526-.7-12.542,1.691a12.051,12.051,0,0,0-6.163,9.053,18.576,18.576,0,0,0,2.922,11.872c0-1.022-.6-3.382-.352-4.333a8.445,8.445,0,0,1,.952-2.748,11.239,11.239,0,0,1,3.98-4.157,22.192,22.192,0,0,1,8.666-2.924c2.782-.388,6.164-.74,8.911,0,1.3.352,1.55.669,2.325-.634a24.159,24.159,0,0,0,1.163-2.959c-.457,0-.915,0-1.374-.035Z" transform="translate(-9715.191 -4564.115)"/>
    <path id="Path_41" data-name="Path 41" class="cls-5" d="M11559.216,5627.091a6.954,6.954,0,0,1-3.56-1.3c-4.3-2.818-6.127-8.031-8.489-12.364-1.41-2.607-2.783-6.447-4.967-8.454-.422-.388-5.072-2.607-5.038-2.748l.25-1.268,1.265.246.74-.528-3.417-1.761,2.221-3.77,5.072-.141c1.479,2.817,2.256,6.093,4.4,8.524.914,1.022,1.974,1.9,2.959,2.853a66.257,66.257,0,0,1,4.685,5.25c1.974,2.254,4.933,4.121,6.095,6.974.635,1.585,1.691,5.178.949,6.764a3.378,3.378,0,0,1-3.168,1.761Z" transform="translate(-10312.45 -5264.696)"/>
    <path id="Path_42" data-name="Path 42" class="cls-10" d="M11789.409,6283.5a1.582,1.582,0,0,1,.881.316,1.393,1.393,0,0,1,.316.987,49.511,49.511,0,0,1-.951,12.048c-.915,5.565-2.111,11.413-5.987,15.5-2.256,2.326-5.884,3.911-8.736,2.361-2.5-1.338-3.418-4.439-3.8-7.257a42.11,42.11,0,0,1,3.98-24.446,3.4,3.4,0,0,1,.986-1.339c1.126-.81,4.577.458,5.918.67,2.465.386,4.931.775,7.434,1.162Z" transform="translate(-10538.913 -5926.92)"/>
    <path id="Path_43" data-name="Path 43" class="cls-5" d="M10098.2,4516.753a5.1,5.1,0,0,0,1.55-5.671c-1.374-3.7-2.748-7.433-4.121-11.131-.776-2.079-2.256-4.579-2.256-6.764-.035-3.84,1.339-8.208,2.113-11.942.389-1.9.564-4.579,1.551-6.27.177-.317,2.713-2.607,2.677-2.677l-.387-.775-.774.388-.564-.176,1.833-1.761L10097.7,4468l-3.238.88c-.39,2.079-.284,4.262-1.164,6.2-.387.81-.882,1.549-1.339,2.359a45.625,45.625,0,0,0-1.973,4.193c-.6,1.374-1.515,2.606-2.077,3.945-1.3,2.994-2.606,6.023-3.911,9.053l6.023,19.657a5.18,5.18,0,0,0,8.208,2.5Z" transform="translate(-8911.599 -4177.396)"/>
    <path id="Path_44" data-name="Path 44" class="cls-10" d="M10150.126,5557.682a24.393,24.393,0,0,1-6.623-4.227c-.881-.81-4.79-8.243-4.087-8.455-.071.036-.105.036-.175.07l-.528.211h-.071c-1.163-.106-3.276,1.057-4.437,1.409a84.2,84.2,0,0,1-11.2,3.17,34.376,34.376,0,0,0,1.585,9.828c.846,2.924,2.325,5.32,3.417,8.067a71.127,71.127,0,0,0,4.157,8.172c.352.669,4.051,8.279,3.84,8.313,2.148-.353,3.8-2.079,5.107-3.8,3.1-4.051,4.544-9.582,8.419-12.893,2.994-2.572,6.94-2.818,6.552-8.032a26.639,26.639,0,0,1-5.988-1.832Z" transform="translate(-8949.228 -5216.458)"/>
    <path id="Path_45" data-name="Path 45" class="cls-11" d="M9027.386,5209.725a4.386,4.386,0,0,1-.527,1.833,12.128,12.128,0,0,0-.705,6.022,18.088,18.088,0,0,1,5.813.952c.423-1.479.811-2.959,1.232-4.439a2.231,2.231,0,0,1,.283-.669,1.727,1.727,0,0,1,.773-.458,15.365,15.365,0,0,0,4.368-2.643,2.314,2.314,0,0,0,.705-.845,2.407,2.407,0,0,0,.141-.986v-8.031a1.54,1.54,0,0,0-.175-.881,1.581,1.581,0,0,0-.776-.459c-.458-.175-.916-.316-1.374-.493a1.941,1.941,0,0,0-.424-.14,2.376,2.376,0,0,0-2.076,0,9.006,9.006,0,0,1-2.185.352,11.729,11.729,0,0,1-2.219,8.032.543.543,0,0,1-.986.069,8.318,8.318,0,0,1-1.516-2.289c-.739.176-1.48.353-2.22.563a4.014,4.014,0,0,0,1.022,3.347l.246.246c.317.282.529.388.564.951Z" transform="translate(-7890.353 -4881.921)"/>
    <path id="Path_46" data-name="Path 46" class="cls-12" d="M8172.792,5596.515,8163.6,5595l-9.407,25.714L8132,5616.946l4.861,29.555,28.217-16.908Z" transform="translate(-7028.362 -5264.696)"/>
    <path id="Path_47" data-name="Path 47" class="cls-3" d="M7107.05,10836.689a19.48,19.48,0,0,1-4.051-.563,70.9,70.9,0,0,1,1.621-14.126c2.113,2.36,3.875.986,3.8,5.391-.036,1.41-1.656,7.115-1.41,9.3Z" transform="translate(-6035.609 -10307.567)"/>
    <path id="Path_48" data-name="Path 48" class="cls-13" d="M6923.486,11154.447c-1.585-.562-1.937,3.24-1.973,4.121a6.3,6.3,0,0,1-.07,1.621,4.4,4.4,0,0,1-.881,1.516c-.775.986-1.549,1.936-2.325,2.922a4.536,4.536,0,0,0-.881,1.41,2.948,2.948,0,0,0,1.551,3.451c4.262,2.15,8.172-3.064,9.088-6.516.141-.529.247-1.057.352-1.621.212-1.127,1.057-3.521.6-4.613-.529-1.27-2.079-.354-3.1-.811-.951-.459-1.726-1.234-2.36-1.445Z" transform="translate(-5856.376 -10628.25)"/>
    <path id="Path_49" data-name="Path 49" class="cls-14" d="M7040.3,7925.074c-3.98,10.85-8.595,21.452-11.2,32.831-3.24,14.02-8.455,27.723-11.131,41.777a36.167,36.167,0,0,1-5.178-.211c-1.973-.246-5.108-.774-5.812-2.924-.352-1.092.036-2.889.071-4.052.176-3.662.423-7.326.7-10.989.775-10.357,1.269-20.82,3.206-31.034q3.012-16.118,5.671-32.233c.917-5.53,2.043-11.061,3.417-16.521.353-1.409,4.052-15.888,4.791-15.746a68.048,68.048,0,0,1,24.2,8.665,3.359,3.359,0,0,1,1.69,1.727,3.215,3.215,0,0,1-.211,2.149c-2.254,6.657-5.249,12.928-7.644,19.585-.845,2.325-1.69,4.615-2.536,7.01Z" transform="translate(-5942.829 -7474.965)"/>
    <path id="Path_50" data-name="Path 50" class="cls-3" d="M7977.034,10853.281a22.287,22.287,0,0,0,4.017.67,68.716,68.716,0,0,0,2.642-13.949c-2.712,1.619-4.016-.212-5.248,4.015-.388,1.375-.529,7.292-1.444,9.3Z" transform="translate(-6878.822 -10324.935)"/>
    <path id="Path_51" data-name="Path 51" class="cls-13" d="M7966.833,11143.8c0,2.605,2.043,5.39,3.17,7.749a2,2,0,0,1,.282.88,2.417,2.417,0,0,1-.528,1.234,3,3,0,0,1-1.374,1.269,3.243,3.243,0,0,1-1.831-.036,28.389,28.389,0,0,1-3-.811,2.451,2.451,0,0,1-.7-.317,1.884,1.884,0,0,1-.528-.738,7.81,7.81,0,0,1-1.269-3.981,22.806,22.806,0,0,0-.07-4.9c-.142-.775-.353-1.762.316-2.185.528-.317,1.445.143,2.008.211a7.845,7.845,0,0,1,2.818.635,1.858,1.858,0,0,1,.493.423,1.15,1.15,0,0,1,.141.6Z" transform="translate(-6863.229 -10616.159)"/>
    <path id="Path_52" data-name="Path 52" class="cls-14" d="M7891.388,7938.432c.563,11.554,1.8,23.038.951,34.663-1.093,14.372-.176,28.956-1.8,43.187a33.986,33.986,0,0,0,5.037,1.339c1.938.353,5.107.774,6.411-1.057.668-.951.845-2.782,1.127-3.875.915-3.558,1.762-7.115,2.606-10.708,2.361-10.11,4.967-20.256,6.2-30.577,1.269-10.85,2.642-21.7,4.156-32.479.775-5.565,1.339-11.167,1.656-16.769.07-1.443.845-16.38.106-16.485a67.809,67.809,0,0,0-25.681,1.092,3.654,3.654,0,0,0-2.114,1.128,3.21,3.21,0,0,0-.422,2.113c.176,7.045,1.162,13.914,1.479,20.96.105,2.466.211,4.9.352,7.432Z" transform="translate(-6794.514 -7493.255)"/>
    <path id="Path_53" data-name="Path 53" class="cls-13" d="M7222.3,6195.392c-.141.036-.282.106-.423.142a23.869,23.869,0,0,0-6.235,4.015c-2.888,2.325-4.333,3.382-5.46,6.833a81.883,81.883,0,0,0-2.325,9.97c-3.276,17.119-3.91,34.169-6.271,51.395-.634,4.686-1.126,10.215,2.325,13.421,6.164-4.791,13.915-5.072,21.382-5.072,5.25,0,10.393-1.691,15.641-1.127a40.12,40.12,0,0,0,7.714-.141,43.3,43.3,0,0,1,6.8-.211c1.232.071,2.782.071,3.276-1.057-1.762-5.284-1.726-10.991-2.149-16.556-1.023-14.408-5.812-28.181-7.715-42.483-.669-4.861-.987-12.928-4.755-16.591-4.086-3.98-13.422-4.086-18.67-3.312a19.247,19.247,0,0,0-3.136.705Z" transform="translate(-6130.284 -5842.826)"/>
    <path id="Path_54" data-name="Path 54" class="cls-11" d="M7746.383,5437.221a2.12,2.12,0,0,0,.352.493,3.956,3.956,0,0,0,2.29,1.057,10.827,10.827,0,0,0,3.346-.248c1.48-.281,1.445-1.163,1.656-2.5.106-.74.177-1.479.246-2.219.036-.423-.14-1.867.142-2.149.176-.176.881-.141,1.2-.281a3.268,3.268,0,0,0,1.2-1.2,10.13,10.13,0,0,0,1.021-2.466l1.374-4.438a25.844,25.844,0,0,0,1.092-4.615c.211-2.4-.176-5.741-1.973-7.468-1.655-1.585-4.016-2.148-6.235-2.431a13.028,13.028,0,0,0-8.419,1.691,7.1,7.1,0,0,0-2.571,2.536c-.916,1.726-.846,3.84-.74,5.848.105,1.831.176,3.7.282,5.531.105,2.113.352,4.543,1.972,5.706.847.6,1.938.74,2.678,1.515.916.987.846,2.466.881,3.7a4.568,4.568,0,0,0,.281,1.973Z" transform="translate(-6650.458 -5084.899)"/>
    <path id="Path_55" data-name="Path 55" class="cls-9" d="M7982.95,5252.865a3.545,3.545,0,0,1,.246.529c.353.986.106,2.078.423,3.064.528,1.55,2.324,2.5,2.607,4.086.21,1.339-.67,2.571-.74,3.91-.071,1.48.846,2.854.7,4.3a9.646,9.646,0,0,1-1.655,4.017c.246-.317,2.325-.212,2.889-.528.845-.493.915-.846,1.162-1.691a22.6,22.6,0,0,1,.423-2.606c.457-1.092,1.444-1.867,1.761-3.029.458-1.586-.387-3.242-.316-4.9.106-2.5,2.254-4.827,1.479-7.187-.458-1.374-1.8-2.29-2.571-3.523a23.412,23.412,0,0,1-1.2-3.1,3.741,3.741,0,0,0-2.148-2.4,16.268,16.268,0,0,0-1.832-.211,23.7,23.7,0,0,1-2.924-1.268c-1.444-.494-3.981.986-4.826,2.184s-.423,2.254.458,3.311c1.41,1.8,4.861,2.959,6.023,5Z" transform="translate(-6877.831 -4924.357)"/>
    <path id="Path_56" data-name="Path 56" class="cls-9" d="M7476.356,5184.2a24.208,24.208,0,0,0-2.712,1.832c-1.55,1.444-1.832,3.769-1.9,5.883-.035,1.866-.881,3.557-.669,5.5a4.854,4.854,0,0,0,1.762,3.416c1.338.952,3.416,1.128,4.016,2.678.634,1.656-1.093,3.769-.035,5.213.563.811,1.726.916,2.536,1.445a7.285,7.285,0,0,1,1.972,2.606,3.257,3.257,0,0,0,2.5,1.9,9.061,9.061,0,0,0-.635-4.544c-.422-.88-1.655-2.536-.7-3.522.6-.811,2.008-1.056,2.043-2.078a2.572,2.572,0,0,0-.563-1.269,5.794,5.794,0,0,1-.423-5.213,7.561,7.561,0,0,1,3.7-3.84c1.9-.915,1.62-1.409,2.148-3.241.528-1.69,1.479-2.079,2.993-2.712,1.375-.564,1.8-.881,2.291-2.185a3.808,3.808,0,0,0,.281-3.1,6.107,6.107,0,0,0-1.937-1.972c-1.551-1.163-3.277-2.431-5.215-2.29-1.092.07-2.077.6-3.169.634-.705.034-1.445-.106-2.149-.141a5.7,5.7,0,0,0-3.522,1.056c-.986.74-.986,1.515-1.516,2.572a3.478,3.478,0,0,1-1.126,1.232Z" transform="translate(-6390.683 -4863.056)"/>
    <path id="Path_57" data-name="Path 57" class="cls-9" d="M7188.885,4905.51c.176-1.162.07-2.677-1.056-3.065-.6-.211-1.3.036-1.937-.1-1.339-.282-1.8-1.9-2.537-3.1a1.327,1.327,0,0,0-.423-.458,1.88,1.88,0,0,0-.881.036c-1.338.176-2.36-1.163-3.628-1.656a3.167,3.167,0,0,0-4.016,2.008c-.211.669-.176,1.374-.352,2.043-.74,2.677-4.686,3.84-4.791,6.622-.07,1.9,1.8,3.7,1.057,5.426-.458,1.127-1.9,1.867-1.726,3.064a1.614,1.614,0,0,0,1.69,1.268,3.247,3.247,0,0,0,2.078-.95c.917-.811,1.622-1.867,2.5-2.712a4.3,4.3,0,0,1,3.276-1.41c1.2.142,2.254,1.057,3.453.881.951-.141,1.655-.987,2.571-1.233a8.351,8.351,0,0,1,2.642.176c.881.07,1.972-.423,2.008-1.3a1.911,1.911,0,0,1,0-.633c.176-.564,1.163-.529,1.374-1.127-.459-.705-1.128-.458-1.444-1.409a5.5,5.5,0,0,1,.07-2.4Z" transform="translate(-6098.879 -4591.27)"/>
    <path id="Path_58" data-name="Path 58" class="cls-15" d="M7787.12,6780.326H7604V6662H7787.12Z" transform="translate(-6508.901 -6290.524)"/>
    <path id="Path_59" data-name="Path 59" class="cls-16" d="M12281.037,4136.141a.212.212,0,0,0-.035-.141l.07.07-.07.071Z" transform="translate(-11031.21 -3857.091)"/>
    <path id="Path_60" data-name="Path 60" class="cls-17" d="M4995.283,11331.122l-.282,4.155,7.961,4.722,4.438-3.84-3.839-4.437L4995.6,11327Z" transform="translate(-4001.867 -10794.778)"/>
    <path id="Path_61" data-name="Path 61" class="cls-9" d="M4862.881,7795l-.881,12.576,12.857,55.552-8.208,56.185,8.068,2.221,23.882-67.213.811-20.36L4894.62,7792Z" transform="translate(-3873.552 -7384.304)"/>
    <path id="Path_62" data-name="Path 62" class="cls-9" d="M5466.62,8033.009l5.108,52.627-4.157,68.763-7.609.633-10.18-62.244L5434,8031Z" transform="translate(-4425.402 -7614.886)"/>
    <path id="Path_63" data-name="Path 63" class="cls-17" d="M6170,11506.705l.352,4.156,8.6,3.416,3.77-4.473-4.475-3.8Z" transform="translate(-5135.476 -10967.472)"/>
    <path id="Path_64" data-name="Path 64" class="cls-17" d="M4663.651,6065.4c-.6,4.792-1.127,11.273.706,11.7a2.018,2.018,0,0,0,1.021-.176c3.382-1.409,5.883-3.628,9.194-4.967a37.02,37.02,0,0,1,11.1-2.255,105.078,105.078,0,0,1,16.979,0c4.438.388,8.842,1.233,13.21,2.043,3.628.669,6.939,2.114,10.709,2.254a23.887,23.887,0,0,0,11.237-2.324.77.77,0,0,0,.317-.247.675.675,0,0,0,0-.458c-.563-2.219-.916-4.4-2.148-6.341a40.425,40.425,0,0,1-3.17-7.151,109.863,109.863,0,0,1-4.791-15.288c-1.833-7.081-4.016-13.985-5.743-21.065a122.812,122.812,0,0,0-4.051-14.619c-1.443-3.7-4.085-9.16-7.785-11.1a12.268,12.268,0,0,0-4.085-1.057c-4.263-.563-8.489-1.128-12.752-1.691a10.346,10.346,0,0,0-4.649.07c-2.219.74-3.664,2.853-4.932,4.826a102.612,102.612,0,0,0-12.471,28.78c-1.444,5.32-2.818,10.674-4.015,16.063-1.339,5.989-2.466,12.047-3.206,18.177-.07.668-.388,2.571-.67,4.861Z" transform="translate(-3681.649 -5648.123)"/>
    <path id="Path_65" data-name="Path 65" class="cls-18" d="M5307.083,6023.777a35.736,35.736,0,0,1-1.269,7.187q-5.389,21.56-10.814,43.153c11.449,1.091,22.933,2.183,34.382,3.275.14-5.53.316-11.026.457-16.557a76.194,76.194,0,0,0-.176-10.6c-.634-5.671-2.466-11.165-4.3-16.556-3.417-10-6.8-20.044-10.216-30.048a4.139,4.139,0,0,0-.774-1.516,4.089,4.089,0,0,0-1.833-.915,33.609,33.609,0,0,0-10.18-1.621c-1.128,2.924,1.373,8.42,2.184,11.343,1.2,4.228,2.748,8.455,2.572,12.894Z" transform="translate(-4291.299 -5655.006)"/>
    <path id="Path_66" data-name="Path 66" class="cls-11" d="M5438.727,5340.09l-7.081-1.057a34.042,34.042,0,0,1,.67-5.671,17.729,17.729,0,0,1-3.911-2.643c-.845-1.409-.705-3.628-.951-5.213-.529-3.417-.917-7.221,1.126-9.969,2.114-2.854,6.165-3.487,9.723-3.206,4.474.352,9.3,2.149,11.166,6.2,1.691,3.665-1.408,8.49-2.536,12.048-.564,1.761-1.339,3.769-3.065,4.333-.916.316-2.008.141-2.854.634-1.514.845-1.409,3.03-2.254,4.544Z" transform="translate(-4418.679 -4991.925)"/>
    <path id="Path_67" data-name="Path 67" class="cls-9" d="M5266.032,4889.583c.529-2.431,1.057-4.862,1.55-7.292a6.619,6.619,0,0,0,.176-2.748,4.831,4.831,0,0,0-3.135-3.1c-1.444-.564-2.994-.74-4.439-1.2-1.55-.528-3.03-1.373-4.649-1.479-3.1-.175-5.777,2.431-8.876,2.607-4.3.246-8-2.114-11.062,2.606-.563.881-.811,1.9-1.3,2.818a21.206,21.206,0,0,1-2.607,3.03c-3.84,4.438-3.522,11.836.106,16.31,1.761,2.185,2.4,4.051,5.037,4.966-.986-2.642,1.691-12.54,5.213-13.315.917-.211,3.523,1.163,4.51,1.445a26.014,26.014,0,0,1,6.27,2.218,32.758,32.758,0,0,0,9.511,3.453,1.743,1.743,0,0,0,1.269-.105,1.9,1.9,0,0,0,.529-1.057c.633-3.029,1.3-6.06,1.938-9.124Z" transform="translate(-4227.562 -4568.86)"/>
    <path id="Subtraction_1" data-name="Subtraction 1" class="cls-19" d="M.619,35.459a.131.131,0,0,1-.1-.036L-1.015,25.094a4.986,4.986,0,0,1-2.61,1.236,5.077,5.077,0,0,1-.743.055,4.983,4.983,0,0,1-3.914-1.89,5.537,5.537,0,0,1-2.806,1.279,5.644,5.644,0,0,1-.835.063,5.586,5.586,0,0,1-3.627-1.344,5.6,5.6,0,0,1-1.9-3.429c-.019-.134-.037-.264-.045-.4a5.164,5.164,0,0,1-4.314-4.35l.009-.018a5.13,5.13,0,0,1,.94-3.82A5.148,5.148,0,0,1-17.5,10.424l0,0a2.641,2.641,0,0,1-.041-.261A6.237,6.237,0,0,1-16.382,5.5a6.237,6.237,0,0,1,4.121-2.473,6.341,6.341,0,0,1,.945-.071,6.238,6.238,0,0,1,4.048,1.5,5.8,5.8,0,0,1,4.023-2.6,5.856,5.856,0,0,1,.865-.065A5.825,5.825,0,0,1,3.3,6.418l.245-.05.142-.029a5.253,5.253,0,0,1,.773-.058A5.182,5.182,0,0,1,6.766,16.1a5.056,5.056,0,0,1,.688,1.888,5.028,5.028,0,0,1-4.217,5.7,3.8,3.8,0,0,1-.626.053L.878,35.159a.244.244,0,0,1-.058.2A.278.278,0,0,1,.619,35.459Zm-2.5-21.752a1.275,1.275,0,0,0-.19.015,1.036,1.036,0,0,0-.9,1.155,1.067,1.067,0,0,0,1.043,1.039,1.273,1.273,0,0,0,.189-.014,1.036,1.036,0,0,0,.9-1.156A1.055,1.055,0,0,0-1.884,13.707Zm-4.729,0a1.273,1.273,0,0,0-.19.015,1.035,1.035,0,0,0-.9,1.155,1.065,1.065,0,0,0,1.041,1.039,1.261,1.261,0,0,0,.19-.014,1.036,1.036,0,0,0,.9-1.155A1.065,1.065,0,0,0-6.613,13.707Zm-4.2,0a1.274,1.274,0,0,0-.19.015,1.036,1.036,0,0,0-.9,1.155,1.065,1.065,0,0,0,1.042,1.038,1.261,1.261,0,0,0,.19-.014,1.037,1.037,0,0,0,.9-1.156A1.054,1.054,0,0,0-10.812,13.707Z" transform="translate(1218.442 262.952)"/>
    <path id="Path_72" data-name="Path 72" class="cls-8" d="M11881.394,7319.806c-2.569,2.043-5.141,4.121-7.748,6.165,1.3,2.008,2.607,4.051,3.84,6.094.633,1.022-1.057,1.832-1.657.811-1.161-1.937-2.395-3.84-3.628-5.742-2.5,2.008-5.038,4.016-7.538,6.024-.951.739-2.148-.67-1.2-1.41,2.571-2.043,5.143-4.122,7.715-6.165-1.516-2.29-3.063-4.509-4.686-6.729-.706-.951.7-2.184,1.41-1.232,1.619,2.219,3.205,4.509,4.72,6.8,2.5-2.009,5.036-4.017,7.539-6.025.951-.739,2.148.669,1.2,1.41Z" transform="translate(-10628.045 -6926.305)"/>
    <path id="Path_73" data-name="Path 73" class="cls-8" d="M8265.5,7689.347a1.264,1.264,0,0,0,.387.07c.177.035.389.07.565.105,11.446,2.607,7.537,21.664-3.876,19.868.493-.635.071-1.8-.845-1.516-6.8,2.079-8.033-8.172-6.376-12.4a9.622,9.622,0,0,1,10.11-6.129Zm123.538-13.95a52.584,52.584,0,0,0-2.711-10.074.912.912,0,0,0-1.586-.105,40.482,40.482,0,0,0-6.024,9.476c-.422.917.812,1.55,1.481,1.022a25.145,25.145,0,0,0,2.431-2.255c-4.3,13.738-8.421,30.611-23.92,33.782-13.879,2.853-21.7-12.646-27.687-22.475-5.144-8.454-10.639-17.578-19.269-22.9-9.23-5.672-20.572-5.283-29.908-.177-9.44,5.144-17.015,14.62-16.8,25.716a11.726,11.726,0,0,0-12.049,9.828c-.914,4.967,1.621,13,7.4,12.752a.768.768,0,0,0,.6.915,11.357,11.357,0,0,0,14.057-9.088c1.2-6.023-1.974-12.752-8.172-14.161-.635-15.076,14.9-27.793,29.133-28.146,23.564-.6,30.962,26.173,43.432,41.145,3.735,4.474,8.455,8.208,14.443,8.7,5.566.458,10.956-1.832,15.184-5.319,10.356-8.489,12.5-22.368,16.731-34.452a51.467,51.467,0,0,1,1.409,6.131c.211,1.2,2.008.81,1.831-.353Z" transform="translate(-7144.918 -7254.771)"/>
    <path id="Path_74" data-name="Path 74" class="cls-20" d="M8335.982,8605.579a7.269,7.269,0,0,1-.095-.948c-.077-3.662,1.8-6.09,5.577-5.2,1.936.455,3.055,2.883,3.055,4.723a3.734,3.734,0,0,1-1.4,3.227c-1.688,1.062-5.653,1.176-6.791-.816a2.919,2.919,0,0,1-.342-.967Z" transform="translate(-7221.367 -8159.308)"/>
    <path id="Path_75" data-name="Path 75" class="cls-9" d="M8373.931,4578.467l-49-69.467-4.933,3.453,49,69.466Z" transform="translate(-7209.738 -4216.952)"/>
    <path id="Path_76" data-name="Path 76" class="cls-9" d="M8652.932,4381.467l-49-69.467-4.934,3.452,49,69.467Z" transform="translate(-7478.911 -4026.891)"/>
    <path id="Path_77" data-name="Path 77" class="cls-21" d="M8513.9,4479.466l-49-69.466-4.9,3.487,49,69.466Z" transform="translate(-7344.807 -4121.438)"/>
    <path id="Path_78" data-name="Path 78" class="cls-22" d="M8294,4284.427l.916,1.3,14.76-10.392-.951-1.338Z" transform="translate(-7184.655 -3990.23)"/>
    <path id="Path_79" data-name="Path 79" class="cls-18" d="M8267,4247.392l.952,1.339,14.725-10.428-.916-1.3Z" transform="translate(-7158.606 -3954.533)"/>
    <path id="Path_80" data-name="Path 80" class="cls-22" d="M8241,4209.392l.914,1.338,14.761-10.392-.95-1.338Z" transform="translate(-7133.523 -3917.872)"/>
    <path id="Path_81" data-name="Path 81" class="cls-23" d="M8007.96,3845.148l5.988,8.454,14.725-10.392-5.988-8.455a7.446,7.446,0,0,0-10.357-1.8l-2.571,1.832A7.445,7.445,0,0,0,8007.96,3845.148Z" transform="translate(-6907.387 -3563.421)"/>
    <path id="Path_82" data-name="Path 82" class="cls-18" d="M8214,4172.392l.95,1.3,14.725-10.392-.916-1.3Z" transform="translate(-7107.474 -3882.175)"/>
    <path id="Path_83" data-name="Path 83" class="cls-24" d="M9725.76,6284,9711,6294.392l20.185,12.964Z" transform="translate(-8551.738 -5929.424)"/>
    <path id="Path_84" data-name="Path 84" class="cls-25" d="M10154.417,6792l-3.417,2.431,4.685,3.03Z" transform="translate(-8976.24 -6419.53)"/>
    <path id="Path_87" data-name="Path 87" class="cls-26" d="M7203.656,7740.677c-3.487-3.24-2.959-8.736-2.325-13.421.316-2.29.6-4.615.88-6.9,4.581-4.756,8.948-9.3,12.858-13.351v29.166a24.689,24.689,0,0,0-10.251,3.7,13.107,13.107,0,0,0-1.127.81Z" transform="translate(-6130.031 -7302.298)"/>
    <path id="Path_89" data-name="Path 89" class="cls-27" d="M7725,7516.386v-10.639q1.374-1.427,2.642-2.748A34.772,34.772,0,0,0,7725,7516.386Z" transform="translate(-6635.699 -7105.484)"/>
    <path id="Path_90" data-name="Path 90" class="cls-28" d="M5797.233,9556.021c-.809-.034-1.233-.034-1.233-.034.212-.212.528-.565.987-.985l.282,1.056Z" transform="translate(-4774.65 -9085.201)"/>
    <path id="Path_92" data-name="Path 92" class="cls-29" d="M5766.156,7277.157H5682a277.813,277.813,0,0,0,3.171-44.7c-.142-13.386-.07-24.94-2.008-37.727,28.041,0,54.953-1.726,83.029-1.726,1.2,11.766,1.972,24.588,2.113,38.326a417.439,417.439,0,0,1-2.113,45.83Z" transform="translate(-4664.666 -6806.405)"/>
    <path id="Path_93" data-name="Path 93" class="cls-8" d="M6052.833,7760.2a40.727,40.727,0,0,1-13.844,8.138c-.775-12.4,1.621-24.836.317-37.235,4.791-2.043,10.18-3.628,15.042-1.092,5.107,2.678,6.869,10.04,6.833,15.359C6061.146,7751.425,6057.13,7756.287,6052.833,7760.2Zm9.582-17.226c-.6-5.531-2.571-12.012-8.066-14.443-6.271-2.817-13,.106-18.776,2.783-.775.353-.106,1.55.669,1.162.564-.281,1.163-.527,1.762-.81,1.162,12.4-1.2,24.834-.317,37.234a.742.742,0,0,0,.071.881c.034.281.034.563.07.811.07.88,1.444.88,1.374,0-.036-.282-.036-.6-.07-.882,11.1-3.8,24.729-13.667,23.284-26.771Z" transform="translate(-5005.451 -7321.959)"/>
    <path id="Path_94" data-name="Path 94" class="cls-8" d="M6790.119,8401.233c-.987,4.473-4.579,8.63-9.44,8.63-6.023,0-7.292-6.376-6.235-11.166a10.059,10.059,0,0,1,3.169-5.672,8.725,8.725,0,0,1,4.334-2.043.634.634,0,0,0,.774.388,7.459,7.459,0,0,1,1.163-.142,2.808,2.808,0,0,1,.423.246.552.552,0,0,0,.845-.175c4.051.775,5.778,5.987,4.931,9.934Zm-5.848-11.378c-2.008-.811-4.72.176-6.411,1.267a11.38,11.38,0,0,0-4.756,7.222c-1.162,5.426.317,12.365,6.834,12.858,6.271.492,11.026-5.178,11.7-10.99.563-4.9-2.4-10.181-7.4-10.322Z" transform="translate(-5716.985 -7960.811)"/>
    <path id="Path_95" data-name="Path 95" class="cls-8" d="M7540.434,8824.038l-.071-.105a1.424,1.424,0,0,0-2.289.528,2.349,2.349,0,0,0-.634,1.831,1.515,1.515,0,0,0,1.444,1.374,1.8,1.8,0,0,0,1.655-1.443,1.41,1.41,0,0,0,.388-1.3,1.436,1.436,0,0,0-.529-.881Z" transform="translate(-6454.726 -8379.495)"/>
    <path id="Path_96" data-name="Path 96" class="cls-8" d="M7586.87,7939.852a.572.572,0,0,0,.317.105,19.174,19.174,0,0,0-.352,1.937c0-.7.034-1.373.034-2.077Zm.106-4.545a.31.31,0,0,1,.176.036.662.662,0,0,0-.07.281c-.035.247-.07.493-.105.7a9.927,9.927,0,0,1,.035-1.021Zm2.853-.211c-.634-1.127-2.395-1.127-3.521-1.163a.649.649,0,0,0-.67.669c-.246,8-.282,15.993-.176,23.99a.656.656,0,0,0,.81.634.67.67,0,0,0,1.339-.035,136.279,136.279,0,0,1,1.55-17.719c.211-1.3.423-2.606.635-3.875A3.807,3.807,0,0,0,7589.829,7935.1Z" transform="translate(-6501.021 -7521.235)"/>
    <path id="Path_97" data-name="Path 97" class="cls-3" d="M5074.871,6881.549a1.559,1.559,0,0,0-.211-.423c-.845-1.162-1.973-1.233-3.064-2.113-.493-.388-.352-2.008-1.585-1.585-.458.141-1.514.7-2.5,1.057a9.346,9.346,0,0,1-5.178-.211,41.7,41.7,0,0,1-6.587-2.36,79.954,79.954,0,0,1-12.858-7.574,21.913,21.913,0,0,0,.6-22.615,5.215,5.215,0,0,0-1.621-1.868,4.386,4.386,0,0,0-2.008-.529c-7.4-.493-7.539,6.553-7.891,12.225a72.06,72.06,0,0,0,.106,10.674c.423,4.931,3.628,7.785,7.854,10.145a73,73,0,0,0,13.985,6.447,50.565,50.565,0,0,0,7.187,1.338c2.431.388,2.114,1.444,4.121,2.361a20.663,20.663,0,0,0,3.382,1.514c2.148.494,3.91-.985,5.566-2.148a2.291,2.291,0,0,0,.915-.916,3.428,3.428,0,0,0,.106-2.148A8.238,8.238,0,0,0,5074.871,6881.549Z" transform="translate(-4037.388 -6469.026)"/>
    <path id="Path_98" data-name="Path 98" class="cls-4" d="M4925.7,6199.386c.106,2.747.352,5.424.669,8,.493,3.839,1.127,8,3.91,10.638a16.615,16.615,0,0,0,3.734,2.431q9.353,4.967,18.952,9.476a36.242,36.242,0,0,0,5.566-9.582,4.349,4.349,0,0,0,.388-3.029c-.493-1.479-2.185-2.079-3.665-2.5-2.431-.705-4.86-1.374-7.256-2.079a2.434,2.434,0,0,1-2.4-2.748c-.212-10.075,1.55-18.494,3.875-28.251,1.022-4.3,2.079-8.736,1.2-13.069-1.832-9.229-13.985-11.659-18.635-3.065-5.284,9.758-6.87,22.264-6.375,33.783Z" transform="translate(-3934.892 -5810.078)"/>
    <path id="Path_99" data-name="Path 99" class="cls-8" d="M12284.839,6721.3a2.792,2.792,0,0,1,1.268-.986,15.094,15.094,0,0,0,2.36-.951c.6-.388.457-1.832,1.831-1.3.527.212,1.408.846,2.395,1.233a9.847,9.847,0,0,0,5.179.105,174.534,174.534,0,0,1,20.432-3.522,2.19,2.19,0,0,0,1.128-.317,2.508,2.508,0,0,0,.809-1.761,48.026,48.026,0,0,1,2.783-9.053,18.1,18.1,0,0,1,4.687-6.939,8.336,8.336,0,0,1,7.82-1.9,5.623,5.623,0,0,1,4.12,4.156c1.058,5.249-3.769,9.16-6.658,12.823-2.712,3.488-5.071,6.411-7.925,9.617a3.607,3.607,0,0,1-1.2.986,4.129,4.129,0,0,1-1.622.247c-6.9-.105-13.667-.352-20.43,1.057-1.868.388-3.558,0-5.32.6-1.128.388-1.69,1.48-2.747,2.008a9.906,9.906,0,0,1-3.382,1.163c-2.254.14-3.663-1.515-5.213-2.889a3.548,3.548,0,0,0-3.77-.987c-.176.036-.388.177-.6.142a.939.939,0,0,1-.562-1.41c.317-.562.88-.7,1.479-.916a7.141,7.141,0,0,1,1.9-.423.975.975,0,0,0,.776-.211A6.91,6.91,0,0,0,12284.839,6721.3Z" transform="translate(-11030.325 -6326.497)"/>
    <path id="Path_100" data-name="Path 100" class="cls-30" d="M11.766,37.915c-3.911-1.479-8-2.36-11.766-4.155,1.372-3.312,5.354-16.768,6.059-18.39C8.665,9.205,9.194,6.564,12.787,3.323,20.5-3.616,29.625,1,29.272,10.826,28.849,21.5,23.143,30.694,16.944,38.937a1.4,1.4,0,0,1-.564.422,1.564,1.564,0,0,1-.881-.106c-1.2-.493-2.465-.88-3.7-1.339Z" transform="translate(1302.604 341.92) rotate(30)"/>
    <path id="Path_101" data-name="Path 101" class="cls-3" d="M13733.319,10184.932a30.45,30.45,0,0,1-4.016-.385c-.7-13.281.564-27.2,1.091-40.547,3.42.176,6.836.354,10.217.564a119.772,119.772,0,0,0-5.072,21.945c-.142,1.2-2.077,18.422-2.254,18.422Z" transform="translate(-12428.293 -9653.451)"/>
    <path id="Path_102" data-name="Path 102" class="cls-31" d="M13447.4,11221.146a2.047,2.047,0,0,0-1.9.739c-.317.28-.564.705-.951.915a3.465,3.465,0,0,1-1.231.316c-2.467.248-8.137.143-5.109,4.263,2.748,3.733,10.04,2.256,14.233,1.235a1.528,1.528,0,0,0,.771-.319,1.718,1.718,0,0,0,.424-.846c.494-1.76,1.129-3.945-1.021-4.684-.916-.318-1.761.281-2.746-.036C13449.055,11222.448,13448.243,11221.32,13447.4,11221.146Z" transform="translate(-12146.809 -10692.622)"/>
    <path id="Path_103" data-name="Path 103" class="cls-14" d="M13544.354,7782.665c6.94-.14,13.915-.281,20.854-.387q8.454-40.159,14.864-80.739c.317-2.077.67-4.262.036-6.3-1.128-3.841-5.248-6.06-9.194-6.764-6.13-1.163-17.4.458-20.536,6.834-3.312,6.728-2.748,18.776-3.559,26.209a455.438,455.438,0,0,0-2.466,61.188Z" transform="translate(-12249.894 -7284.085)"/>
    <path id="Path_104" data-name="Path 104" class="cls-3" d="M14778.292,10184.932a30.45,30.45,0,0,0,4.016-.385c.705-13.281-.563-27.2-1.091-40.547-3.417.176-6.835.354-10.216.564a119.532,119.532,0,0,1,5.072,21.945c.14,1.2,2.078,18.422,2.255,18.422Z" transform="translate(-13433.495 -9653.451)"/>
    <path id="Path_105" data-name="Path 105" class="cls-31" d="M14918.939,11221.146a2.046,2.046,0,0,1,1.9.739c.318.28.564.705.951.915a3.476,3.476,0,0,0,1.234.316c2.465.248,8.135.143,5.107,4.263-2.748,3.733-10.041,2.256-14.232,1.235a1.527,1.527,0,0,1-.773-.319,1.726,1.726,0,0,1-.424-.846c-.494-1.76-1.127-3.945,1.02-4.684.918-.318,1.762.281,2.748-.036C14917.283,11222.448,14918.094,11221.32,14918.939,11221.146Z" transform="translate(-13569.738 -10692.622)"/>
    <path id="Path_106" data-name="Path 106" class="cls-14" d="M14288.089,7782.665c-6.939-.14-13.915-.281-20.854-.387q-8.457-40.159-14.866-80.739c-.315-2.077-.668-4.262-.035-6.3,1.129-3.841,5.25-6.06,9.194-6.764,6.129-1.163,17.4.458,20.537,6.834,3.311,6.728,2.782,18.776,3.559,26.209a455.276,455.276,0,0,1,2.465,61.188Z" transform="translate(-12932.759 -7284.085)"/>
    <path id="Path_107" data-name="Path 107" class="cls-32" d="M13626.778,5987.458a49.657,49.657,0,0,1,12.259,19.2c4.437,12.505,4.544,25.856,4.579,38.925,0,4.369.035,8.7.035,13.069,0,4.3-.352,5.214-5.037,4.65-8.63-1.056-17.613-2.817-25.4-6.658-3.734-1.832-7.187-4.122-11.1-5.565-5.672-2.079-11.483-1.127-17.119-2.5a131.469,131.469,0,0,0,5.425-21.242c1.3-7.819,2.465-16.344,4.332-24.059a63.244,63.244,0,0,1,5.39-13.21c1.444-2.854,2.96-5.777,5.426-7.855,7.361-6.234,15.64-.071,21.17,5.249Z" transform="translate(-12289.272 -5635.737)"/>
    <path id="Path_108" data-name="Path 108" class="cls-8" d="M14174.633,5131.371c1.058,2.291,2.785,4.228,4.192,6.341a13.986,13.986,0,0,1,2.22,6.27c.247,1.726.881,3.065,2.958,3.348,3.911.563,2.783-2.678,3.665-5,1.021-2.678,3.169-4.791,4.685-7.187,4.368-6.9,3.1-20.572-5.953-23.46-9.9-3.17-14.937,12.716-11.729,19.691Z" transform="translate(-12857.242 -4798.001)"/>
    <path id="Path_109" data-name="Path 109" class="cls-9" d="M14476.271,5199.247c1.127.035.212-.74,1.057,0s1.446,4.191.846,4.966c-.352.457-1.974-.528-1.727,0a9.715,9.715,0,0,1,.881,6.412c.422.387,1.058,0,1.409-.422a20.82,20.82,0,0,0,4.121-6.728,3.746,3.746,0,0,0,1.514,1.444,4.537,4.537,0,0,1,.105-2.889c.848-3.487,1.41-7.574-1.021-10.427a9.216,9.216,0,0,0-5.283-2.783,26.776,26.776,0,0,0-6.059-.176c-.848.035-1.939.211-2.114,1.021a9.435,9.435,0,0,1,4.791,4.016c.282.563,1.408,5.566,1.55,5.566Z" transform="translate(-13143.097 -4872.571)"/>
    <path id="Path_110" data-name="Path 110" class="cls-9" d="M14228.737,4985.266c.071.036.142.105.212.141a8.718,8.718,0,0,0,2.677,1.726c1.48.423,3.1-.316,4.58.212,1.655.563,2.712,2.536,3.909,3.7a17.714,17.714,0,0,0,7.011,4.122,16.347,16.347,0,0,0,4.121.739,8.176,8.176,0,0,0,2.078,0c.847-.212.811-.6-.07-.88-2.747-.881-3.628-4.756-3.417-7.328.177-2.043.881-4.157.105-6.023-.6-1.444-1.867-2.184-3.1-2.995-1.34-.916-2.818-.669-4.368-1.092-1.621-.458-2.924-1.727-4.545-2.042-1.726-.353-3.452.422-5.179.775a10.57,10.57,0,0,1-4.333-.071,15.779,15.779,0,0,0-3.84-.774,6.346,6.346,0,0,0-4.825,2.782,12.791,12.791,0,0,0-2.043,8.913c-.071-.458,1.443-2.078,1.762-2.431a4.026,4.026,0,0,1,2.465-1.549c2.29-.283,4.968.846,6.835,2.183Z" transform="translate(-12899.545 -4666.975)"/>
    <path id="Path_114" data-name="Path 114" class="cls-33" d="M13107.3,8304.832l-2.748-.247L13088,8303.07v0l16.557,1.515Z" transform="translate(-11809.78 -7877.303)"/>
    <path id="Path_115" data-name="Path 115" class="cls-34" d="M13649.809,8355.269,13636,8354l13.808,1.269Z" transform="translate(-12338.477 -7926.507)"/>
    <g id="Group_10" data-name="Group 10" transform="matrix(0.966, -0.259, 0.259, 0.966, 1266.303, 362.688)">
      <path id="Path_111" data-name="Path 111" class="cls-35" d="M.413.026.013,4.4A2.449,2.449,0,0,0,2.067,7.175l10.268.933A2.455,2.455,0,0,0,14.87,5.735l.4-4.374L.386,0Z" transform="translate(11.856 86.111)"/>
      <path id="Path_112" data-name="Path 112" class="cls-23" d="M49.985,30.26C51.4,14.843,41.368,1.347,27.605.094S1.547,10.309.133,25.725A30.53,30.53,0,0,0,2.614,40.981h0a82.159,82.159,0,0,1,6.375,24.7l12.535,1.147,12.536,1.146A81.687,81.687,0,0,1,44.782,44.849h0a30.444,30.444,0,0,0,5.2-14.536Z" transform="translate(0 0)"/>
      <path id="Path_113" data-name="Path 113" class="cls-36" d="M1.689.027.008,18.644A1.327,1.327,0,0,0,1.1,20.164l23.207,2.108a1.349,1.349,0,0,0,1.36-1.308l1.68-18.617L1.689,0Z" transform="translate(7.006 65.6)"/>
      <path id="Path_117" data-name="Path 117" class="cls-37" d="M1.28,40.514,1.519,4.534,5.36,8.828,9.628,2.64l3.147,6.641,4.483-3.36-6.27,35.473,1.28.133L19.124,2.8,13.255,7.2,9.841,0,5.253,6.642.267,1.04,0,40.407Z" transform="translate(15.389 25.832)"/>
      <path id="Path_119" data-name="Path 119" class="cls-38" d="M2.588,1.52,0,16.136l1.28.107L4.162,0C3.655.506,3.12,1.013,2.588,1.52Z" transform="translate(26.378 51.091)"/>
      <path id="Path_120" data-name="Path 120" class="cls-39" d="M25.658,5.788,0,3.441.294,0,25.953,2.347Z" transform="translate(7.974 70.242)"/>
      <path id="Path_121" data-name="Path 121" class="cls-39" d="M25.685,5.787,0,3.44.32,0,25.978,2.347Z" transform="translate(7.281 77.577)"/>
    </g>
    <path id="Path_122" data-name="Path 122" class="cls-8" d="M13980.7,6823.561a1.089,1.089,0,0,1,.179-.352c.738-.987,1.689-1.093,2.677-1.833.423-.352.316-1.726,1.372-1.374.389.143,1.34.635,2.184.917a8.245,8.245,0,0,0,4.51-.14,44.276,44.276,0,0,0,5.742-2.008c1.9-.881,3.735-1.832,5.532-2.89,1.479-.88,3.874-1.867,5-3.169,1.9-2.219-.317-7.679-.564-10.462-.246-2.923,0-11.483,3.91-11.731,6.448-.388,6.518,5.707,6.834,10.639a62.551,62.551,0,0,1-.1,9.264c-.389,4.3-3.172,6.764-6.836,8.772a65.179,65.179,0,0,1-12.152,5.565,46.82,46.82,0,0,1-6.271,1.163c-2.113.352-1.829,1.268-3.593,2.008a18.455,18.455,0,0,1-2.958,1.3c-1.866.422-3.383-.881-4.826-1.868a2.047,2.047,0,0,1-.775-.775,3.068,3.068,0,0,1-.105-1.867,5.531,5.531,0,0,1,.281-1.092Z" transform="translate(-12670.712 -6418.083)"/>
    <path id="Path_123" data-name="Path 123" class="cls-30" d="M14590.8,6220.068c-3.629.7-7.258,1.408-10.92,2.113.246-.035-4.192-16.31-4.439-17.3-.881-3.734-1.762-7.608-1.021-11.343,1.62-8.031,5.5-10,10.356-1.549,4.615,7.961,11.8,17.472,10.392,26.525a1.515,1.515,0,0,1-.175.564,1.1,1.1,0,0,1-.741.317C14593.087,6219.61,14591.958,6219.856,14590.8,6220.068Z" transform="translate(-13243.567 -5835.375)"/>
  </g>
</svg>
