<svg xmlns="http://www.w3.org/2000/svg" viewBox="0 0 200 51.092">
  <defs>
    <style>
      .cls-1, .cls-2 {
        fill: #fff;
      }

      .cls-1 {
        fill-rule: evenodd;
      }
    </style>
  </defs>
  <g id="Final_Logo" data-name="Final Logo" transform="translate(-439 -930)">
    <path id="Path_1" data-name="Path 1" class="cls-1" d="M1390,959.564l7.318-7.955v17.246h8.846V950.209l7.255-8.209v34.11H1390Z" transform="translate(-890.832 -11.236)"/>
    <path id="Path_2" data-name="Path 2" class="cls-1" d="M960.446,1137.228v9.864l-15.082-16.037h0l-4.455-4.964.255,7.764v6.936l-7.255-5.6v-20.937H932V1107h31.119l-6.555,7.255h0l-8.464,9.164,12.537,13.873Zm-14.064-23.037h-5.346v5.791Z" transform="translate(-461.817 -166)"/>
    <path id="Path_3" data-name="Path 3" class="cls-1" d="M460.891,1128.737h-7.255v-16.482h-6.682L439,1105h27.428v7.255h-5.536Z" transform="translate(0 -163.97)"/>
    <path id="Path_4" data-name="Path 4" class="cls-1" d="M2032.991,1102.365l7.255,8.146v-40.155h-7.255v12.982L2016,1068v10.691l16.927,15.4Z" transform="translate(-1477.229 -129.482)"/>
    <path id="Path_5" data-name="Path 5" class="cls-1" d="M1838.464,957.619l7.955,7.255H1823V930l7.255,6.491v21.128Z" transform="translate(-1296.437 0)"/>
    <path id="Path_6" data-name="Path 6" class="cls-2" d="M2510.819,1115.8h4.136a4.738,4.738,0,0,0,.573-1.146c.191-.509.445-1.082.636-1.718.255-.636.446-1.337.7-1.973.254-.7.445-1.336.7-1.973s.446-1.209.636-1.654a4.137,4.137,0,0,1,.573-1.082v-.064c0-.064,0-.127-.063-.127h-2.8c-.191,0-.382.127-.509.445a3.853,3.853,0,0,0-.509,1.146,8.581,8.581,0,0,0-.509,1.527c-.191.573-.318,1.082-.509,1.591s-.318,1.018-.509,1.4a3.366,3.366,0,0,1-.445.954h0a3.366,3.366,0,0,1-.445-.954c-.191-.446-.318-.891-.509-1.4s-.318-1.082-.509-1.591c-.191-.573-.318-1.082-.509-1.527a10.046,10.046,0,0,0-.509-1.146c-.191-.318-.382-.445-.573-.445h-2.8a.221.221,0,0,0-.064.127v.064a3.294,3.294,0,0,1,.573,1.082c.19.509.445,1.018.636,1.654.255.637.446,1.273.7,1.973s.445,1.337.7,1.973.446,1.209.636,1.718A4.737,4.737,0,0,0,2510.819,1115.8Zm13.555-1.209a2.947,2.947,0,0,1-.127.891.668.668,0,0,1-.573.318h-1.591a.669.669,0,0,1-.573-.318,1.76,1.76,0,0,1-.127-.891v-7.318a3.091,3.091,0,0,1,.127-.954.62.62,0,0,1,.573-.255h1.591a.62.62,0,0,1,.573.255,1.9,1.9,0,0,1,.127.954Zm12.919-.509v-2.036a1.918,1.918,0,0,0-.191-.764,3.378,3.378,0,0,0-1.337-1.336,1.59,1.59,0,0,0-.891-.255h-3.563a2.371,2.371,0,0,1-.764-.127.325.325,0,0,1-.255-.318v-.255a.382.382,0,0,1,.064-.254c0-.064.064-.127.127-.191a.234.234,0,0,1,.191-.064h4.9a.9.9,0,0,0,.382-.127,1.33,1.33,0,0,0,.255-.382,4.377,4.377,0,0,0,.191-.509,1.58,1.58,0,0,0,.064-.509v-.191a.382.382,0,0,0-.064-.255c0-.064-.064-.191-.064-.255-.063-.064-.063-.127-.127-.127h-7.636a1.2,1.2,0,0,0-.509.127c-.127.127-.318.255-.382.382a1.571,1.571,0,0,0-.254.573,2.163,2.163,0,0,0-.064.636v2.036a1.917,1.917,0,0,0,.191.763,3.38,3.38,0,0,0,1.336,1.337,1.591,1.591,0,0,0,.891.255h3.564a2.381,2.381,0,0,1,.763.127.325.325,0,0,1,.255.318v.255a.382.382,0,0,1-.064.255c0,.064-.064.127-.127.191a.234.234,0,0,1-.191.064H2528.7a.905.905,0,0,0-.382.127,1.334,1.334,0,0,0-.255.382,4.377,4.377,0,0,0-.191.509,1.579,1.579,0,0,0-.064.509v.191a.382.382,0,0,0,.064.255c0,.064.064.191.064.255.063.064.063.127.127.127h7.955a1.2,1.2,0,0,0,.509-.127c.127-.127.318-.255.382-.382a1.571,1.571,0,0,0,.254-.573,1.959,1.959,0,0,0,.064-.636Zm5.918-6.809v5.409a.851.851,0,0,0,.446.509,1.046,1.046,0,0,0,.636.127h2.545a1.028,1.028,0,0,0,.573-.191.856.856,0,0,0,.382-.445v-5.409a3.1,3.1,0,0,1,.127-.954.62.62,0,0,1,.573-.255h1.591a.62.62,0,0,1,.573.255,1.906,1.906,0,0,1,.127.954v6.173a1.913,1.913,0,0,1-.191.764,3.375,3.375,0,0,1-1.336,1.336,2.358,2.358,0,0,1-.891.255h-5.791a1.588,1.588,0,0,1-.89-.255,1.737,1.737,0,0,1-.764-.573,5.974,5.974,0,0,1-.573-.764,1.692,1.692,0,0,1-.191-.764v-6.173a3.114,3.114,0,0,1,.127-.954.621.621,0,0,1,.573-.255h1.591a.62.62,0,0,1,.573.255,1.9,1.9,0,0,1,.127.954Zm21.064,1.146v6.173a1.411,1.411,0,0,1-.064.573c-.064.127-.064.255-.127.382a.869.869,0,0,1-.254.191.383.383,0,0,1-.255.064h-7.446a1.59,1.59,0,0,1-.891-.255,1.736,1.736,0,0,1-.764-.573,5.934,5.934,0,0,1-.573-.764,1.692,1.692,0,0,1-.191-.764V1110.9a3.1,3.1,0,0,1,.127-.954.621.621,0,0,1,.573-.255h6.554c.064,0,.127-.064.191-.127.064-.127.064-.191.127-.255v-.191a.854.854,0,0,0-.382-.445,2.017,2.017,0,0,0-.573-.191h-5.791a.906.906,0,0,1-.382-.127,1.33,1.33,0,0,1-.255-.382,4.333,4.333,0,0,1-.191-.509,1.58,1.58,0,0,1-.064-.509v-.191a.382.382,0,0,1,.064-.255c0-.064.063-.191.063-.255.064-.064.064-.127.127-.127h7.891a1.592,1.592,0,0,1,.891.255,1.741,1.741,0,0,1,.764.573,5.966,5.966,0,0,1,.573.764,1.7,1.7,0,0,1,.19.764Zm-7.255,3.755c-.063,0-.127.064-.191.127a.383.383,0,0,0-.063.254v.191a.761.761,0,0,0,.445.445.946.946,0,0,0,.573.127h3.182c.064,0,.127-.064.191-.127a.482.482,0,0,0,.127-.255v-.445a.4.4,0,0,0-.318-.382h-3.882Zm13.173-4.9v5.409a.852.852,0,0,0,.446.509,1.046,1.046,0,0,0,.636.127h4.772c.064,0,.127.064.191.127s.064.191.127.255c0,.127.064.191.064.318v.255a1.522,1.522,0,0,1-.127.573.856.856,0,0,1-.382.446,1.383,1.383,0,0,1-.509.318,2.26,2.26,0,0,1-.636.127h-5.091a1.591,1.591,0,0,1-.891-.255,1.735,1.735,0,0,1-.763-.573,5.971,5.971,0,0,1-.573-.764,1.7,1.7,0,0,1-.191-.764v-6.173a3.105,3.105,0,0,1,.127-.954.62.62,0,0,1,.573-.255h1.591a.621.621,0,0,1,.573.255,1.9,1.9,0,0,1,.127.954Z" transform="translate(-1937.429 -164.871)"/>
    <path id="Path_7" data-name="Path 7" class="cls-2" d="M2517.927,1329.082v-2.036a1.914,1.914,0,0,0-.191-.764,3.375,3.375,0,0,0-1.336-1.336,1.591,1.591,0,0,0-.891-.255h-3.564a2.375,2.375,0,0,1-.763-.127.325.325,0,0,1-.254-.318v-.255a.384.384,0,0,1,.063-.255c0-.063.063-.127.127-.191a.234.234,0,0,1,.191-.063h4.9a.905.905,0,0,0,.382-.127,1.332,1.332,0,0,0,.254-.382,4.377,4.377,0,0,0,.191-.509,1.585,1.585,0,0,0,.063-.509v-.191a.384.384,0,0,0-.063-.255c0-.064-.063-.191-.063-.255-.064-.064-.064-.127-.127-.127h-7.636a1.2,1.2,0,0,0-.509.127c-.127.127-.318.255-.382.382a1.57,1.57,0,0,0-.255.573,2.162,2.162,0,0,0-.064.636v2.036a1.919,1.919,0,0,0,.191.764,3.375,3.375,0,0,0,1.336,1.336,1.592,1.592,0,0,0,.891.255h3.563a2.374,2.374,0,0,1,.764.127.325.325,0,0,1,.255.318v.255a.382.382,0,0,1-.064.255c0,.064-.064.127-.127.191a.234.234,0,0,1-.191.064h-5.282a.907.907,0,0,0-.382.127,1.328,1.328,0,0,0-.255.382,4.35,4.35,0,0,0-.191.509,1.585,1.585,0,0,0-.063.509v.191a.384.384,0,0,0,.063.255c0,.064.063.191.063.255.064.064.064.127.127.127h7.955a1.2,1.2,0,0,0,.509-.127c.127-.127.318-.255.382-.382a1.567,1.567,0,0,0,.254-.573,1.952,1.952,0,0,0,.064-.636Zm6.046.509v-5.664a.33.33,0,0,0-.127-.255c-.064-.064-.127-.127-.191-.127H2521.3a.9.9,0,0,1-.382-.127,1.332,1.332,0,0,1-.254-.382,4.389,4.389,0,0,1-.191-.509,1.585,1.585,0,0,1-.063-.509v-.191a.383.383,0,0,1,.063-.255c0-.064.063-.191.063-.255.064-.064.064-.127.127-.127h9.482a.137.137,0,0,1,.127.127c.063.064.063.127.063.255,0,.064.064.191.064.255v.191a1.4,1.4,0,0,1-.064.509c-.063.191-.063.382-.191.509-.063.127-.191.255-.254.382a.468.468,0,0,1-.382.127h-2.354c-.064,0-.127.064-.191.127a.483.483,0,0,0-.127.255v5.664a2.947,2.947,0,0,1-.127.891.668.668,0,0,1-.573.318h-1.59a.669.669,0,0,1-.573-.318,1.763,1.763,0,0,1-.127-.891Zm12.537-7.318v5.409a.852.852,0,0,0,.446.509,1.046,1.046,0,0,0,.636.127h2.545a1.027,1.027,0,0,0,.573-.191.856.856,0,0,0,.382-.445v-5.409a3.108,3.108,0,0,1,.127-.955.622.622,0,0,1,.573-.255h1.591a.621.621,0,0,1,.573.255,1.9,1.9,0,0,1,.127.955v6.173a1.922,1.922,0,0,1-.191.764,3.374,3.374,0,0,1-1.337,1.336,2.357,2.357,0,0,1-.891.255h-5.791a1.59,1.59,0,0,1-.891-.255,1.736,1.736,0,0,1-.763-.573,5.976,5.976,0,0,1-.573-.764,1.7,1.7,0,0,1-.191-.764v-6.173a3.106,3.106,0,0,1,.127-.955.62.62,0,0,1,.573-.255h1.591a.62.62,0,0,1,.573.255,1.9,1.9,0,0,1,.127.955Zm20.491,6.173a1.919,1.919,0,0,1-.191.764,3.376,3.376,0,0,1-1.336,1.336,2.356,2.356,0,0,1-.891.255h-6.873a.669.669,0,0,1-.573-.318,1.763,1.763,0,0,1-.127-.891v-7.318a3.116,3.116,0,0,1,.127-.955.621.621,0,0,1,.573-.255h8.018a1.2,1.2,0,0,1,.509.127c.127.127.318.255.382.382a1.576,1.576,0,0,1,.255.573,2.171,2.171,0,0,1,.063.636v5.664Zm-3.436-4.964h-3.246c-.064,0-.127.063-.191.127a.385.385,0,0,0-.063.255v4.009a.384.384,0,0,0,.063.255c.064.064.127.127.191.127h2.609a2.8,2.8,0,0,0,.636-.127,1.18,1.18,0,0,0,.445-.509v-3.691a.383.383,0,0,0-.063-.255c0-.064-.064-.127-.127-.191a.233.233,0,0,0-.191-.064Zm9.418,6.046a2.948,2.948,0,0,1-.127.891.668.668,0,0,1-.573.318h-1.591a.669.669,0,0,1-.573-.318,1.751,1.751,0,0,1-.128-.891v-7.318a3.1,3.1,0,0,1,.128-.955.621.621,0,0,1,.573-.255h1.591a.62.62,0,0,1,.573.255,1.9,1.9,0,0,1,.127.955Zm13.555-6.173v5.091a1.923,1.923,0,0,1-.191.764,3.376,3.376,0,0,1-1.336,1.336,2.357,2.357,0,0,1-.891.255h-5.791a1.589,1.589,0,0,1-.891-.255,1.735,1.735,0,0,1-.764-.573,5.953,5.953,0,0,1-.573-.764,1.692,1.692,0,0,1-.191-.764v-5.091a1.914,1.914,0,0,1,.191-.764,3.375,3.375,0,0,1,1.336-1.336,2.358,2.358,0,0,1,.891-.255h5.791a1.59,1.59,0,0,1,.891.255,1.737,1.737,0,0,1,.764.573,5.963,5.963,0,0,1,.573.764A1.7,1.7,0,0,1,2576.538,1323.355Zm-4.073.127h-2.481a2.8,2.8,0,0,0-.636.127,1.177,1.177,0,0,0-.446.509v3.564a.851.851,0,0,0,.446.509,1.045,1.045,0,0,0,.636.127h2.545a1.028,1.028,0,0,0,.573-.191.857.857,0,0,0,.382-.445v-3.564a.852.852,0,0,0-.446-.509,1.046,1.046,0,0,0-.636-.127Z" transform="translate(-1938.365 -366.275)"/>
  </g>
</svg>
