<svg xmlns="http://www.w3.org/2000/svg" viewBox="0 0 174.017 247.939">
  <defs>
    <style>
      .cls-1 {
        fill: #242424;
      }

      .cls-1, .cls-2, .cls-3, .cls-4, .cls-5, .cls-6, .cls-7 {
        fill-rule: evenodd;
      }

      .cls-2 {
        fill: #eacdb0;
      }

      .cls-3 {
        fill: #2069e2;
      }

      .cls-4 {
        fill: #6b6b6b;
      }

      .cls-5 {
        fill: #444;
      }

      .cls-6 {
        fill: #4285f4;
      }

      .cls-7 {
        fill: #6aa2ff;
      }
    </style>
  </defs>
  <g id="Group_56" data-name="Group 56" transform="translate(-1255.983 -1122.819)">
    <path id="Path_321" data-name="Path 321" class="cls-1" d="M606.168,6605.758a48.733,48.733,0,0,1-5.283-.271c-6.763-.7-13.646-1.083-20.379-2.09-15.488-2.322-30.946-2.477-46.555-2.477-6.189,0-12.378-.077-18.567-.077-9,0-45.241-14.075-44.423-20.843,1.01-8.39,17-8.978,21.72-9h1.993c3.925,0,7.85.039,11.775.039h9.571c6.431,0,49.453,3.754,52.865,3.871,2.929.116,5.857.155,8.786.155,5.223,0,10.446-.116,15.669-.155h2.144c11.654,0,52.261.619,49.332,12.772-1.117,4.685-7.638,10.761-11.291,12.735a39.454,39.454,0,0,1-14.733,4.452c-4.287.425-8.453.852-12.68.852Z" transform="translate(785.037 -5235)"/>
    <g id="Group_16" data-name="Group 16" transform="translate(59.432 22.731)">
      <path id="Path_143" data-name="Path 143" class="cls-2" d="M15016.468,9531.107c-1.045,1.237-2.09,2.476-3.135,3.674a83.088,83.088,0,0,1-11.333-10.56c2.088-1,3.558-3.944,6.306-1.7.889.735,7.968,8.818,8.2,8.548Z" transform="translate(-13684.476 -8216)"/>
      <path id="Path_144" data-name="Path 144" class="cls-3" d="M15141.318,9706.135a3.584,3.584,0,0,0-.656,2.477,11.576,11.576,0,0,1,.153,1.625,3.373,3.373,0,0,1-.5,1.354c-1.2,2.205-5.454,7.968.464,8.084,5.339.116,8.781-8.741,10.6-13.15a1.838,1.838,0,0,0,.193-.929,2.255,2.255,0,0,0-.5-1.006c-1.238-1.664-3.1-4.255-4.874-2.476-.774.734-1.006,2.012-1.857,2.784-.7.62-2.515.7-2.978,1.277Z" transform="translate(-13814.938 -8388.862)"/>
      <path id="Path_145" data-name="Path 145" class="cls-4" d="M13875,6554.239c1.007,6.962-.271,13.77-.929,20.578-.772,7.659,0,14.157,1.509,21.777,1.664,8.316,3.482,16.632,5.8,24.794,2.438,8.51,6.035,15.279,10.1,23.015a4.6,4.6,0,0,1,.7,2.089c-.077,2.63-11.6,9.941-12.337,8.394-6.344-12.92-16.479-25.878-21.934-39.223a647.043,647.043,0,0,1-24.407-71.25c-.967-3.443-1.857-7.427-.116-10.367,1.316-2.244,3.83-3.249,6.189-3.983,6.344-1.973,17.754-6.344,24.059-2.127,6.924,4.6,10.251,18.45,11.372,26.226Z" transform="translate(-12560.108 -5336.336)"/>
      <path id="Path_146" data-name="Path 146" class="cls-2" d="M13913.795,9736.209c-1.546-.04-3.093-.078-4.641-.078a102,102,0,0,1-.35-16.13c2.129,1.006,5.145.271,5.378,3.983.078,1.2-.734,12.262-.426,12.262Z" transform="translate(-12633.403 -8406.634)"/>
      <path id="Path_147" data-name="Path 147" class="cls-3" d="M13635.752,10059a3.02,3.02,0,0,0-2.165,1.082,10.145,10.145,0,0,1-1.007,1.2,3.267,3.267,0,0,1-1.276.5c-2.32.464-9.128.89-5.261,5.686,3.521,4.371,11.914,1.277,16.169-.154a1.36,1.36,0,0,0,.773-.464,1.992,1.992,0,0,0,.348-1.045c.31-2.128.851-5.338-1.546-5.569-1.006-.116-2.05.54-3.173.348-.89-.155-2.166-1.586-2.9-1.549Z" transform="translate(-12360.622 -8732.521)"/>
      <path id="Path_148" data-name="Path 148" class="cls-4" d="M13733.895,6619.421c-1.9,10.135-8.007,17.987-10.831,27.85-5.491,19.108-6.652,40.963-9.322,60.768-.192,1.509-.192,6.963-.192,6.963s-7.272,1.47-11.683.58a661.391,661.391,0,0,1-3.712-119.369c.231-3.6.657-7.7,3.21-9.9,1.973-1.7,4.6-1.818,7.078-1.74,6.577.232,18.684-.078,23.247,6.034,4.991,6.691,3.637,20.965,2.205,28.778Z" transform="translate(-12429.947 -5392.467)"/>
      <path id="Path_182" data-name="Path 182" class="cls-2" d="M12316.034,6466.4c1.161-1.315,2.359-2.63,3.52-3.907.349-.387,1.161-1.74,1.818-1.237.31.232,1.432.967,2.475,1.779,1.085.31,2.129.657,3.211.889,2.785.5,9.245-1.624,10.289,2.089a6.264,6.264,0,0,1,.349,2.2,5.3,5.3,0,0,1-.5,1.741c-.192.425-.387,1.16-.812,1.354-.464.193-1.625-.193-2.128-.232-1.431-.155-2.822-.348-4.254-.5-1.393-.155-3.056-.232-3.906.889-.194.232-.349.542-.542.735a1.917,1.917,0,0,1-.929.464,15.667,15.667,0,0,1-3.714.851c-1.159.116-1.663-.657-2.475-1.354-.967-.813-2.167-.89-3.134-1.664a2.036,2.036,0,0,1-.812-1.818,3.224,3.224,0,0,1,.851-1.431c.232-.27.5-.541.735-.812Z" transform="translate(-11100.898 -5273.832)"/>
      <path id="Path_149" data-name="Path 149" class="cls-2" d="M13702.327,4600.971c2.437-.311,4.873-.619,7.349-.929a37.611,37.611,0,0,0-.58-5.879c2.012-.773,4.332-1.934,4.641-4.061a5.927,5.927,0,0,0-.192-2.012c-.581-2.746-1.121-5.531-1.7-8.277a6.865,6.865,0,0,0-.968-2.746,6.165,6.165,0,0,0-4.447-2.244,15.245,15.245,0,0,0-12.224,3.366,7.016,7.016,0,0,0-2.012,2.824c-.541,1.7-.038,3.558.466,5.261q.694,2.377,1.392,4.757c.541,1.818,1.315,3.907,3.095,4.525.967.349,2.049.193,2.939.7C13701.63,4597.18,13701.476,4599.423,13702.327,4600.971Z" transform="translate(-12425.106 -3460.314)"/>
      <path id="Path_150" data-name="Path 150" class="cls-5" d="M13151.664,4219.82a14.733,14.733,0,0,0-1.431-1.934,30.532,30.532,0,0,1-3.482-3.946c-.929-1.47-1.315-3.52-.271-4.951a5.4,5.4,0,0,1,2.824-1.74,20.922,20.922,0,0,1,11.024-.542c3.481.773,6.576,2.127,10.019.734,3.21-1.314,5.569-.89,9.012.232,3.715,1.2,8.666,1.354,12.031,3.134a9.9,9.9,0,0,1,3.481,3.21,14.854,14.854,0,0,1,.5,15.666,20.281,20.281,0,0,1-2.2,2.979c-1.663,1.934-3.675,4.333-6.033,5.105-.117-2.127,1.623-8.935-.078-10.637-2.669-2.708-8.548-1.547-11.76-.773-3.48.851-6.575,3.442-10.057,4.061-2.515.464-5.725-.7-7.93-1.9-2.669-1.509-4.061-6.15-5.686-8.665Z" transform="translate(-11900.127 -3106.124)"/>
      <path id="Path_151" data-name="Path 151" class="cls-6" d="M13583.961,5127.779c4.911,2.592,8.74,7.349,11.254,12.34,10.1,19.959,15.047,42.084,19.8,63.939,1.548,7.078,3.365,14.7,8.859,19.5-4.836.89-9.94,1.585-14.621.077-3.056-.967-5.764-2.823-8.7-4.216-7.272-3.481-15.666-4.1-23.674-3.094s-15.743,3.519-23.4,6.034a87.506,87.506,0,0,1-.621-17.136c.929-16.864,7.7-32.878,7.738-49.821,0-6-.813-12.029.5-17.87a14.836,14.836,0,0,1,15.278-11.8,17.341,17.341,0,0,1,7.62,2.088Z" transform="translate(-12291.229 -3990.063)"/>
      <path id="Path_183" data-name="Path 183" class="cls-7" d="M12787.329,5464.2a22.066,22.066,0,0,1-9.167,3.171,86.227,86.227,0,0,1-26.573-.425,31.441,31.441,0,0,1,.773-12.455,136.89,136.89,0,0,0,21.7-3.017c3.48-.773,6.459-2.05,8.045-5.454a169.549,169.549,0,0,0,8.819-23.595,17.175,17.175,0,0,1,2.088-5.145,9.58,9.58,0,0,1,9.053-3.6,14.039,14.039,0,0,1,8.587,5.067,10.966,10.966,0,0,1,2.9,6.577c.118,2.514-.966,4.912-2.126,7.194a116.979,116.979,0,0,1-19.341,27.58,25.526,25.526,0,0,1-4.8,4.062Z" transform="translate(-11520.822 -4266.795)"/>
    </g>
  </g>
</svg>
