<svg xmlns="http://www.w3.org/2000/svg" viewBox="0 0 54.417 39.873">
  <defs>
    <style>
      .cls-1 {
        fill: #dfa911;
      }
    </style>
  </defs>
  <path id="Path_361" data-name="Path 361" class="cls-1" d="M57.729-82.764a23.215,23.215,0,0,1-4.248,13.8A63.14,63.14,0,0,1,42.345-57.242q0-1.381,0-3,4.133-10.139,3.674-13.134a9.472,9.472,0,0,1-4.363,1.378,7.192,7.192,0,0,1-5.511-2.526,9.831,9.831,0,0,1-2.64-4.363,19.894,19.894,0,0,1-.344-3.674,15.444,15.444,0,0,1,4.018-10.677Q41.2-97.71,47.856-97.021q4.592-.689,7.233,3.909A20.4,20.4,0,0,1,57.729-82.764Zm-30.078,0A22.626,22.626,0,0,1,23.517-69.2a68.467,68.467,0,0,1-11.48,11.956q0-1.381,0-3,4.133-10.368,3.674-13.134a7.407,7.407,0,0,1-4.133,1.378,6.736,6.736,0,0,1-5.4-2.64A11.072,11.072,0,0,1,3.656-79a18.106,18.106,0,0,1-.344-3.559,15.592,15.592,0,0,1,3.9-10.792q3.9-4.363,10.332-3.674,4.822-.689,7.462,3.909A20.4,20.4,0,0,1,27.65-82.764Z" transform="translate(-3.312 97.115)"/>
</svg>
