<svg xmlns="http://www.w3.org/2000/svg" viewBox="0 0 639.199 361.737">
  <defs>
    <style>
      .cls-1 {
        fill: #242424;
      }

      .cls-1, .cls-10, .cls-11, .cls-12, .cls-13, .cls-14, .cls-15, .cls-16, .cls-17, .cls-18, .cls-19, .cls-2, .cls-3 {
        fill-rule: evenodd;
      }

      .cls-2 {
        fill: #707070;
      }

      .cls-21, .cls-3, .cls-4, .cls-5, .cls-6, .cls-7, .cls-8, .cls-9 {
        fill: none;
      }

      .cls-3 {
        stroke: #707070;
      }

      .cls-4 {
        stroke: #ea4335;
      }

      .cls-4, .cls-5, .cls-6, .cls-7, .cls-8, .cls-9 {
        stroke-linecap: round;
      }

      .cls-4, .cls-5, .cls-6, .cls-8, .cls-9 {
        stroke-width: 0.5px;
      }

      .cls-4, .cls-5, .cls-8 {
        stroke-dasharray: 3;
      }

      .cls-5 {
        stroke: #2ec5b6;
      }

      .cls-6, .cls-8 {
        stroke: #dfa911;
      }

      .cls-6, .cls-7, .cls-9 {
        stroke-dasharray: 2;
      }

      .cls-7 {
        stroke: #4285f4;
        stroke-width: 0.53px;
      }

      .cls-9 {
        stroke: #fff;
      }

      .cls-10 {
        fill: #eacdb0;
      }

      .cls-11 {
        fill: #9366d6;
      }

      .cls-12 {
        fill: #292949;
      }

      .cls-13 {
        fill: #d39689;
      }

      .cls-14 {
        fill: #7d35ea;
      }

      .cls-15 {
        fill: #444;
      }

      .cls-16 {
        fill: #fff;
      }

      .cls-17 {
        fill: #e25b45;
      }

      .cls-18 {
        fill: #cf4630;
      }

      .cls-19 {
        fill: #6b6b6b;
      }

      .cls-20 {
        stroke: none;
      }
    </style>
  </defs>
  <g id="Group_90" data-name="Group 90" transform="translate(-767.401 -1606.022)">
    <path id="Path_253" data-name="Path 253" class="cls-1" d="M893.43,6608.5c-3.978,0-7.956-.083-12-.292-15.363-.751-31-1.169-46.3-2.255-35.185-2.506-70.3-2.673-105.76-2.673-14.06,0-28.12-.083-42.18-.083-20.439,0-40.946.167-61.316.877-31.893,1.127-63.785,1.336-95.678,1.336H514.834c-17.7,0-35.253.585-52.949,1s-34.979,1.085-52.606,1.085h-4.8c-17.627-.125-44.444-2.881-57-9.855-7.476-4.134-6.447-14.115,1.029-18.124,3.292-1.754,8.5-3.132,12.826-3.967,12.208-2.38,24.691-2.38,37.517-2.422h.48a177.817,177.817,0,0,1,26.474,2.255c7.682,1.211,15.569,1.629,23.388,2.38,6.379.627,13.237.919,20.027.919,4.389,0,8.779-.125,12.963-.376,11.385-.668,22.839-.96,34.225-1.461,14.129-.626,27.983-2,42.112-2.756,7.064-.375,13.992-1.294,20.987-1.712,18.655-1.127,37.38-1.336,56.1-1.378h4.527c8.916,0,17.833.042,26.749.042h21.742c14.609,0,112.344,4.051,120.095,4.176,6.653.125,13.306.167,19.959.167,11.866,0,23.731-.125,35.6-.167h4.87c26.474,0,118.723.668,112.07,13.78-2.538,5.054-17.352,11.61-25.651,13.739a169.432,169.432,0,0,1-33.47,4.8c-9.739.459-19.2.919-28.806.919Z" transform="translate(425.037 -4640.742)"/>
    <g id="Group_89" data-name="Group 89">
      <g id="Group_18" data-name="Group 18" transform="translate(-162 -19.104)">
        <g id="Final_Logo" data-name="Final Logo" transform="translate(1104.913 1677.073)">
          <path id="Path_1" data-name="Path 1" class="cls-2" d="M1390,980.359l17.028-15.989v34.965h16.28V956.929l17.023-18.126-.073,77.062H1390Z" transform="translate(-1262.371 -938.803)"/>
          <path id="Path_2" data-name="Path 2" class="cls-2" d="M993.047,1171.867v21.167l-32.367-34.413h0l-9.56-10.652.546,16.661v16.249L934.839,1163.6v-42.061l-2.839,1.03V1107h66.783l-14.067,15.568h0l-18.164,19.665,26.9,29.771Zm-30.182-49.436H951.393v12.428Z" transform="translate(-866.575 -1081.168)"/>
          <path id="Path_3" data-name="Path 3" class="cls-3" d="M485.722,1155.938H470.153v-35.37h-14.34L440.237,1105H497.6v15.568H485.722Z" transform="translate(-440.237 -1079.104)"/>
          <path id="Path_4" data-name="Path 4" class="cls-3" d="M2051.545,1144.891l16.317,13.459v-86.17l-16.317.349v27.859l-34.727-28.208V1094.7l34.59,28.77Z" transform="translate(-1803.209 -1046.621)"/>
          <path id="Path_5" data-name="Path 5" class="cls-2" d="M1856.4,988.638l17.109,16.188h-34.689l-16.051-.711h-.956V930.048l16.97,13.619v44.971Z" transform="translate(-1636.828 -927.764)"/>
        </g>
        <line id="Line_21" data-name="Line 21" class="cls-4" x2="396.879" transform="translate(1048.557 1702.873)"/>
        <line id="Line_23" data-name="Line 23" class="cls-5" x2="392.912" transform="translate(1068.396 1718.59)"/>
        <line id="Line_24" data-name="Line 24" class="cls-5" x2="402.583" transform="translate(1028.5 1737.933)"/>
        <path id="Path_313" data-name="Path 313" class="cls-4" d="M0,0H396.879" transform="translate(1048.557 1753.65)"/>
        <line id="Line_25" data-name="Line 25" class="cls-6" x2="178.926" y2="146.284" transform="translate(1249.74 1646.052)"/>
        <line id="Line_29" data-name="Line 29" class="cls-6" x2="178.926" y2="146.284" transform="translate(1249.74 1669.023)"/>
        <line id="Line_37" data-name="Line 37" class="cls-6" x2="178.926" y2="146.284" transform="translate(1223.142 1669.023)"/>
        <line id="Line_31" data-name="Line 31" class="cls-7" x1="182.553" y2="206.732" transform="translate(1122.799 1625.5)"/>
        <line id="Line_35" data-name="Line 35" class="cls-7" x1="182.553" y2="206.732" transform="translate(1099.829 1625.5)"/>
        <line id="Line_32" data-name="Line 32" class="cls-7" x1="182.553" y2="206.732" transform="translate(1133.679 1625.5)"/>
        <line id="Line_33" data-name="Line 33" class="cls-7" x1="182.553" y2="206.732" transform="translate(1145.769 1625.5)"/>
        <path id="Path_251" data-name="Path 251" class="cls-8" d="M1.352-1.006,145.274,150.624" transform="translate(1142.425 1676.066)"/>
        <line id="Line_30" data-name="Line 30" class="cls-8" x2="145.075" y2="147.493" transform="translate(1179.62 1669.023)"/>
        <line id="Line_28" data-name="Line 28" class="cls-8" x2="145.075" y2="147.493" transform="translate(1091.366 1676.276)"/>
        <line id="Line_36" data-name="Line 36" class="cls-8" x2="145.075" y2="147.493" transform="translate(1079.276 1676.276)"/>
        <path id="Path_252" data-name="Path 252" class="cls-8" d="M0,0,144.208,150.337" transform="translate(1142.142 1695.62)"/>
        <g id="Ellipse_14" data-name="Ellipse 14" class="cls-9" transform="translate(1146.374 1702.269)">
          <circle class="cls-20" cx="8.463" cy="8.463" r="8.463"/>
          <circle class="cls-21" cx="8.463" cy="8.463" r="8.213"/>
        </g>
        <g id="Ellipse_21" data-name="Ellipse 21" class="cls-9" transform="translate(1187.478 1702.269)">
          <circle class="cls-20" cx="8.463" cy="8.463" r="8.463"/>
          <circle class="cls-21" cx="8.463" cy="8.463" r="8.213"/>
        </g>
        <g id="Ellipse_22" data-name="Ellipse 22" class="cls-9" transform="translate(1186.269 1728.866)">
          <circle class="cls-20" cx="8.463" cy="8.463" r="8.463"/>
          <circle class="cls-21" cx="8.463" cy="8.463" r="8.213"/>
        </g>
        <g id="Ellipse_23" data-name="Ellipse 23" class="cls-9" transform="translate(1172.971 1747)">
          <circle class="cls-20" cx="8.463" cy="8.463" r="8.463"/>
          <circle class="cls-21" cx="8.463" cy="8.463" r="8.213"/>
        </g>
        <g id="Ellipse_24" data-name="Ellipse 24" class="cls-9" transform="translate(1249.135 1737.329)">
          <circle class="cls-20" cx="8.463" cy="8.463" r="8.463"/>
          <circle class="cls-21" cx="8.463" cy="8.463" r="8.213"/>
        </g>
        <g id="Ellipse_25" data-name="Ellipse 25" class="cls-9" transform="translate(1266.06 1702.269)">
          <circle class="cls-20" cx="8.463" cy="8.463" r="8.463"/>
          <circle class="cls-21" cx="8.463" cy="8.463" r="8.213"/>
        </g>
        <g id="Ellipse_26" data-name="Ellipse 26" class="cls-9" transform="translate(1232.21 1714.359)">
          <circle class="cls-20" cx="8.463" cy="8.463" r="8.463"/>
          <circle class="cls-21" cx="8.463" cy="8.463" r="8.213"/>
        </g>
        <g id="Ellipse_15" data-name="Ellipse 15" class="cls-9" transform="translate(1134.284 1737.329)">
          <circle class="cls-20" cx="8.463" cy="8.463" r="8.463"/>
          <circle class="cls-21" cx="8.463" cy="8.463" r="8.213"/>
        </g>
        <g id="Ellipse_16" data-name="Ellipse 16" class="cls-9" transform="translate(1312.001 1737.329)">
          <circle class="cls-20" cx="8.463" cy="8.463" r="8.463"/>
          <circle class="cls-21" cx="8.463" cy="8.463" r="8.213"/>
        </g>
        <g id="Ellipse_17" data-name="Ellipse 17" class="cls-9" transform="translate(1353.105 1759.09)">
          <circle class="cls-20" cx="8.463" cy="8.463" r="8.463"/>
          <circle class="cls-21" cx="8.463" cy="8.463" r="8.213"/>
        </g>
        <g id="Ellipse_18" data-name="Ellipse 18" class="cls-9" transform="translate(1353.105 1702.269)">
          <circle class="cls-20" cx="8.463" cy="8.463" r="8.463"/>
          <circle class="cls-21" cx="8.463" cy="8.463" r="8.213"/>
        </g>
        <g id="Ellipse_19" data-name="Ellipse 19" class="cls-9" transform="translate(1290.24 1687.761)">
          <circle class="cls-20" cx="8.463" cy="8.463" r="8.463"/>
          <circle class="cls-21" cx="8.463" cy="8.463" r="8.213"/>
        </g>
        <g id="Ellipse_20" data-name="Ellipse 20" class="cls-9" transform="translate(1318.046 1713.15)">
          <circle class="cls-20" cx="8.463" cy="8.463" r="8.463"/>
          <circle class="cls-21" cx="8.463" cy="8.463" r="8.213"/>
        </g>
      </g>
      <g id="Group_21" data-name="Group 21" transform="translate(-139 36.528)">
        <path id="Path_254" data-name="Path 254" class="cls-10" d="M14.356,1.037a1.568,1.568,0,0,0-.357.3c-1.069,1.07-.654,2.5-1.366,3.624-.3.535-2.02,1.129-1.367,1.9.238.3.891,1.307,1.664,2.317,1.128,1.426.95,3.386.95,5.05,0,2.258-.06,4.515-.06,6.832a32.259,32.259,0,0,1-.357,5.882c-.831,4.693-3.386,8.377-5.644,12.357A98.961,98.961,0,0,0,.989,52.486a10.65,10.65,0,0,0-.951,5.05c.535,4.277,4.515,4.812,7.426,2.376a16.685,16.685,0,0,0,3.089-3.684,66.143,66.143,0,0,0,6.06-11.466c.773-1.9,1.426-3.8,2.079-5.7a48.279,48.279,0,0,0,2.792-14.733c-.119-2.436-.475-4.872-.772-7.307-.179-1.485-1.248-4.694.059-5.823a5.516,5.516,0,0,0,.713-.534A1.585,1.585,0,0,0,21.9,9.83a17.575,17.575,0,0,0,.772-3.505C22.851,4.186,20.3,2.106,18.93.859A3.479,3.479,0,0,0,17.8.086a3.23,3.23,0,0,0-2.2.357,7.366,7.366,0,0,0-1.188.594Z" transform="translate(1086.641 1755.102) rotate(73)"/>
        <path id="Path_255" data-name="Path 255" class="cls-11" d="M39.046,24.433A84.831,84.831,0,0,0,44.69,3.165C41.78,2.155,38.868,1.2,35.958.194A1.827,1.827,0,0,0,34.71.075,1.651,1.651,0,0,0,34,.788C31.5,4.472,29.3,8.511,26.1,11.66c-2.257,2.2-4.635,4.1-6.832,6.417C15.639,21.879,11.9,25.5,8.391,29.364,5.242,32.81,1.975,36.434.549,40.89c-3.03,9.565,7.069,18.06,15.743,12.416C26.571,46.712,34.234,36.078,39.046,24.433Z" transform="translate(1050.964 1743.297) rotate(73)"/>
        <path id="Path_285" data-name="Path 285" class="cls-10" d="M4202.856,3361.143c-1.306,2.437-3.386,4.337-5.049,6.536a15.548,15.548,0,0,0-2.911,6.654c-.417,1.841-1.188,3.268-3.446,3.386-4.277.3-2.792-3.149-3.564-5.762-.891-2.971-3.029-5.466-4.515-8.2-4.159-7.842-1.723-22.635,8.376-25.07,11.05-2.674,15.209,15.03,11.169,22.4Z" transform="translate(-3168.431 -1657.35)"/>
        <path id="Path_286" data-name="Path 286" class="cls-12" d="M4110.269,3395.871a5.268,5.268,0,0,0-3.565.713c-.95.772-1.009,2.554.179,2.852,1.069.237,2.555-.772,3.149.119.356.535-.06,1.188-.356,1.723a10.292,10.292,0,0,0-1.486,6.952c-.475.356-1.128-.119-1.485-.535a21.839,21.839,0,0,1-3.92-7.664,4.874,4.874,0,0,1-1.782,1.485,5.191,5.191,0,0,0,.119-3.148c-.654-3.862-.951-8.377,1.961-11.288a10.056,10.056,0,0,1,6-2.614,27.289,27.289,0,0,1,6.594.3c.951.119,2.08.416,2.258,1.307a10.455,10.455,0,0,0-5.525,3.98c-.356.594-2.02,5.941-2.139,5.941Z" transform="translate(-3092.478 -1700.572)"/>
        <path id="Path_3-2" data-name="Path 3" class="cls-2" d="M53.524,59.943H35.2V18.32H18.328L0,0H67.505V18.32H53.524Z" transform="matrix(0.966, 0.259, -0.259, 0.966, 1058.026, 1726.436)"/>
        <path id="Path_287" data-name="Path 287" class="cls-12" d="M3898.7,3247.842a.45.45,0,0,1-.237.119,9.181,9.181,0,0,1-3.09,1.664c-1.663.357-3.327-.594-4.991-.119-1.841.475-3.147,2.554-4.574,3.684a19.151,19.151,0,0,1-12.476,4.4,7.1,7.1,0,0,1-2.257-.179c-.892-.3-.833-.712.178-.95,3.09-.713,4.337-4.871,4.337-7.723,0-2.2-.595-4.574.416-6.595.772-1.544,2.2-2.2,3.624-3.03,1.544-.891,3.148-.476,4.812-.832,1.783-.357,3.327-1.664,5.109-1.842,1.9-.238,3.743.773,5.584,1.248a11.419,11.419,0,0,0,4.693.3,20.549,20.549,0,0,1,4.218-.534,6.751,6.751,0,0,1,4.99,3.387,13.739,13.739,0,0,1,1.486,9.862c.118-.476-1.367-2.376-1.723-2.792a4.519,4.519,0,0,0-2.554-1.9c-2.436-.475-5.466.535-7.6,1.842Z" transform="translate(-2875.924 -1561.396)"/>
        <path id="Path_288" data-name="Path 288" class="cls-13" d="M2871.991,6325.843a36.28,36.28,0,0,0,2.2,4.278c14.971-5.109,29.824-12.595,44.32-19.069-1.723-3.684-3.386-7.368-5.109-11.051a141.493,141.493,0,0,1-22.041,15.269c-1.247.713-19.486,10.4-19.367,10.633Z" transform="translate(-1936.779 -4442.989)"/>
        <path id="Path_289" data-name="Path 289" class="cls-14" d="M2793.37,6699.779a2.387,2.387,0,0,1,0,2.437,7.237,7.237,0,0,0-.594,1.426,3.26,3.26,0,0,0,.238,1.485c.832,2.852,3.446,9.029-2.436,7.544-5.347-1.365-6.892-10.1-7.664-15.209a1.943,1.943,0,0,1,0-1.01,2.329,2.329,0,0,1,.713-.831c1.723-1.307,3.861-3.029,5.644-.951.772.893.475,2.08,1.247,3.03.654.772,2.317,1.188,2.852,2.02Z" transform="translate(-1852.93 -4813.302)"/>
        <path id="Path_290" data-name="Path 290" class="cls-15" d="M3061.428,5120.953c-1.07,3.624-.178,6.653.534,11.168a66.127,66.127,0,0,1,.713,11.881,28.51,28.51,0,0,1-1.782,9.981c-2.2,5.05-6.475,7.664-10.04,11.525a78.984,78.984,0,0,1-9.446,8.913c-7.545,5.881-15.566,11.109-23.408,16.633,2.258,4.1,3.505,5.467,5.763,9.625.416.713,13.664-2.079,14.555-2.2a46.866,46.866,0,0,0,8.5-2.614,164.427,164.427,0,0,0,15.446-7.96,76.168,76.168,0,0,0,28.16-26.794c4.456-7.248,7.664-15.208,10.812-23.111,1.545-3.92,3.565-7.841,4.634-11.881.713-2.673,2.5-6.3,1.664-8.971-.713-2.5-2.376-4.159-4.694-5.7-6.238-4.218-14.258-11.348-22.279-9.446-4.277,1.009-6.06,3.625-9.09,6.3-3.267,2.852-6.178,5.585-8.436,9.387a13.682,13.682,0,0,0-1.485,3.386Z" transform="translate(-2074.114 -3315.865)"/>
        <path id="Path_291" data-name="Path 291" class="cls-13" d="M4803.059,6332.113c1.367,3.028,3.089.237,4.634,1.306,4.575-17.941,4.634-30.3.891-48.418-3.861.89-7.723,1.9-11.585,2.733,3.981,8.377,6.179,14.318,7.249,24.6.178,1.6-1.426,19.368-1.189,19.842Z" transform="translate(-3747.425 -4428.879)"/>
        <path id="Path_292" data-name="Path 292" class="cls-14" d="M4857.705,7047.118c1.01-.059,1.366.475,1.9,1.189.3.416.357.951.714,1.306a2.6,2.6,0,0,0,1.366.595c2.673.713,9.327,1.783,5.109,5.822-3.862,3.684-11.882.891-16.457-1.129a1.99,1.99,0,0,1-.892-.535,2.931,2.931,0,0,1-.357-1.011c-.118-2.2-.3-4.455,2.258-5.168,1.069-.3,2.02.594,3.148.3.951-.237,2.139-1.367,3.148-1.485Z" transform="translate(-3796.366 -5145.609)"/>
        <path id="Path_293" data-name="Path 293" class="cls-15" d="M3943.876,5100.229c5.05,3.8,10.159,7.544,15.209,11.347a18.227,18.227,0,0,1,4.515,4.277,16.81,16.81,0,0,1,2.02,5.287,270.96,270.96,0,0,1,6.178,30.6c.356,2.555.713,5.051.951,7.6.238,2.2-.713,4.872,1.01,6.238,1.961,1.545,8.437,1.366,10.931,1.782,1.129-13.782,2.318-27.506,3.446-41.289a27.817,27.817,0,0,0-.06-7.367,26.744,26.744,0,0,0-2.317-6.3,285.643,285.643,0,0,0-32.853-54.715,6.439,6.439,0,0,0-1.9-1.9,7.005,7.005,0,0,0-3.683-.594c-4.812.118-12.179-1.069-16.576.951a35.3,35.3,0,0,0-13.724,11.347c-2.5,3.327-.891,9.625,1.367,12.833a23.449,23.449,0,0,0,5.644,5.169c6.595,4.931,13.189,9.862,19.724,14.734Z" transform="translate(-2918.539 -3271.911)"/>
        <path id="Path_294" data-name="Path 294" class="cls-14" d="M3664.3,3893.167a31.883,31.883,0,0,0-4.515,3.921,55.9,55.9,0,0,0-10.4,16.278c-5.762,13.6-6.891,28.576-7.9,43.25-.356,4.872-.713,9.743-1.069,14.674-.357,4.813,0,5.881,5.109,5.644,9.446-.416,19.249-1.6,28.042-5.228,4.158-1.723,8.08-3.98,12.416-5.287,6.3-1.842,12.535-.3,18.714-1.307-1.189-4.932-3.208-9.565-3.922-14.674a114.016,114.016,0,0,1-.891-15.565c0-7.307-.3-14.615-.416-21.922-.119-5.7-.059-12.357-3.565-17.169a11.447,11.447,0,0,0-4.693-3.861c-1.367-.594-3.8-.951-4.634-2.376a1.013,1.013,0,0,1-.06-.417c-.06-1.782.535-3.446-1.248-4.1a16.587,16.587,0,0,0-3.446-.415c-1.485-.119-5.168-.417-5.585,1.6a16.355,16.355,0,0,1-.3,1.663,1.246,1.246,0,0,1-.238.357.676.676,0,0,1-.475.178,29.077,29.077,0,0,0-10.931,4.872Z" transform="translate(-2659.458 -2171.016)"/>
        <path id="Path_295" data-name="Path 295" class="cls-10" d="M43.293,0a1.305,1.305,0,0,0-.475.06c-1.485.3-1.9,1.723-3.149,2.317-.535.3-2.257-.119-2.2.832.059.357.059,1.6.178,2.852.178,1.782-1.01,3.327-1.961,4.753l-3.743,5.7a30.732,30.732,0,0,1-3.5,4.753c-3.208,3.5-7.367,5.228-11.466,7.366A106.362,106.362,0,0,0,4.082,36,10.069,10.069,0,0,0,.577,39.745c-1.9,3.921,1.189,6.475,4.991,6a15.733,15.733,0,0,0,4.574-1.426A62.2,62.2,0,0,0,21.43,37.9c1.664-1.189,3.268-2.436,4.813-3.684A51.282,51.282,0,0,0,36.58,23.348c1.247-2.138,2.2-4.337,3.267-6.535.654-1.367,1.486-4.634,3.208-4.812.3-.059.594,0,.831-.059a2.323,2.323,0,0,0,.832-.476,14.472,14.472,0,0,0,2.554-2.495c1.307-1.664.238-4.812-.178-6.654a2.953,2.953,0,0,0-.535-1.248,3.159,3.159,0,0,0-2.02-.891A9.844,9.844,0,0,0,43.234,0Z" transform="translate(1072.148 1725.187) rotate(56)"/>
        <path id="Path_296" data-name="Path 296" class="cls-11" d="M44.09,22.872q1.872-1.069,3.743-2.317A44.058,44.058,0,0,0,59.358,9.09,58.086,58.086,0,0,0,54.488,0C42.13,5.347,29.654,8.02,16.762,11.466c-4.515,1.188-9.208,2.5-12.832,5.466-6.654,5.525-4.575,16.754,4.1,18.714C18.544,38.022,30.961,30,39.813,25.19c1.426-.773,2.851-1.545,4.277-2.377Z" transform="translate(1036.896 1714.465) rotate(56)"/>
      </g>
      <g id="Group_22" data-name="Group 22" transform="translate(-128.932 32.907)">
        <path id="Path_298" data-name="Path 298" class="cls-16" d="M13.4,1.99a1.085,1.085,0,0,1,.3.422c.6,1.387.121,2.473.3,3.92.121.664,1.629,1.387.6,2.292-.362.362-1.448,1.025-2.292,1.749A9.862,9.862,0,0,0,9.718,15.2C8.029,22.136,8.21,29.313,8.692,36.431a2.7,2.7,0,0,0,.241,1.207c.362.6,1.206.784,1.87.965a50.053,50.053,0,0,1,9.711,2.956,20.8,20.8,0,0,1,7.6,4.765,9.153,9.153,0,0,1,2.413,8.323,7.1,7.1,0,0,1-4.4,4.765c-5.247,1.87-10.8-4.162-14.6-7.057A102.531,102.531,0,0,1,1.213,43.488,4.359,4.359,0,0,1,.188,42.161a4.233,4.233,0,0,1-.181-1.75,209.42,209.42,0,0,1,2.413-22.92c.3-2.111,1.689-3.739,1.99-5.73.181-1.267-.6-2.352-.663-3.559a10.751,10.751,0,0,1,.422-3.92C4.892,2.051,7.184,1.207,9.114.362A2.583,2.583,0,0,1,10.441,0a4.137,4.137,0,0,1,2.051,1.025,7.783,7.783,0,0,1,1.025.965Z" transform="translate(1404.827 1713.501) rotate(-34)"/>
        <path id="Path_299" data-name="Path 299" class="cls-17" d="M13.224,34.2a43.771,43.771,0,0,1-3.257-3.438c-3.016-3.619-6.092-7.3-9.108-10.917a3.427,3.427,0,0,1-.724-1.086A3.819,3.819,0,0,1,.2,16.586,85.356,85.356,0,0,0,2.186,0,23.415,23.415,0,0,0,13.1,1.749V12.967a2.078,2.078,0,0,0,.241,1.207,2.272,2.272,0,0,0,.965.724c8.746,4.283,18.336,5.971,27.625,8.746,4.464,1.327,9.108,2.775,12.606,5.85,7.479,6.635,3.2,19.06-7.117,18.7A53.863,53.863,0,0,1,13.1,34.139Z" transform="translate(1414.462 1733.193) rotate(-34)"/>
        <path id="Path_300" data-name="Path 300" class="cls-13" d="M1518.9,6849.146l.121,11.4-7.841.06L1511,6848Z" transform="translate(-52.244 -4955.334)"/>
        <path id="Path_301" data-name="Path 301" class="cls-18" d="M1381.648,7028l5.851,1.93,1.749,1.87-.3,4.463-15.8,1.207a3.543,3.543,0,0,1,1.749-5.368l.724-.241Z" transform="translate(77.892 -5124.478)"/>
        <path id="Path_302" data-name="Path 302" class="cls-13" d="M2341.7,6687l4.463,10.434-6.212,2.654-4.946-11.58Z" transform="translate(-826.543 -4804.046)"/>
        <path id="Path_303" data-name="Path 303" class="cls-18" d="M2323.817,6854.206a9.274,9.274,0,0,1,.784-.724c.724-.543,6.756-3.739,7.238-2.292a1.474,1.474,0,0,1,0,.725,53,53,0,0,1-2.9,12.124c-.6,1.688-1.508,3.5-3.257,3.919a4.866,4.866,0,0,1-2.292-.12,21.253,21.253,0,0,1-3.318-1.024,1.809,1.809,0,0,1-1.025-.725c-.423-.725.3-1.629,1.025-1.99.724-.423,1.629-.664,1.991-1.448a2.3,2.3,0,0,0,.181-1.086c.181-2.774-.3-5.488,1.448-7.418Z" transform="translate(-811.44 -4957.982)"/>
        <path id="Path_304" data-name="Path 304" class="cls-19" d="M1678.875,5023.621c2.232,10.073,8.5,17.372,15.26,24.79a327.192,327.192,0,0,1,21.714,26.66c2.9-1.207,5.851-2.413,8.746-3.68-2.413-14.174-9.168-27.2-14.416-40.652-3.619-9.349-6.574-19.181-6.7-29.253-.06-5.007,1.146-9.591,1.81-14.477.784-6.031.844-12.243,1.568-18.275.241-2.051.362-4.464-1.206-5.791a5.52,5.52,0,0,0-2.533-1.025c-33.234-6.453-28.529,42.4-24.307,61.644Z" transform="translate(-207.151 -3182.466)"/>
        <path id="Path_305" data-name="Path 305" class="cls-19" d="M1284.321,4857.677a69.69,69.69,0,0,0-1.87-16.526,124.471,124.471,0,0,0-29.495,2.412c-9.108,1.87-14.838,3.86-14.9,13.753-.121,18.215-7.238,33.776-10.314,51.268-1.809,10.194,1.327,19.3,4.7,28.711a328.961,328.961,0,0,1,10.013,32.932c3.136,0,6.333-.06,9.469-.06,3.136-14.054,1.809-28.65,2.111-43.065.181-10.013,1.206-20.267,4.886-29.615,4.041-10.313,9.831-6.213,16.526-12.185C1281.969,4879.511,1284.261,4868.232,1284.321,4857.677Z" transform="translate(214.425 -3069.419)"/>
        <path id="Path_306" data-name="Path 306" class="cls-18" d="M1396.542,3914.973a25.056,25.056,0,0,1,2.9,2.774c.784.844,1.629,1.749,2.413,2.593,2.835,3.016,4.222,7.419,5.429,11.279,6.333,20.146,8.625,47.831,4.524,68.881-15.622,1.327-33.717-2.594-49.278-4.7-1.508-.181-3.257-.543-4.041-1.87a5.093,5.093,0,0,1-.483-2.715c0-13.39,2.835-27.745,5.489-40.954a140.436,140.436,0,0,1,4.282-16.466c1.87-5.73,3.981-11.883,8.384-16.226,4.7-4.644,13.631-6.937,19.542-3.317a5.491,5.491,0,0,1,.965.664Z" transform="translate(91.528 -2196.862)"/>
        <path id="Path_307" data-name="Path 307" class="cls-16" d="M1637.915,3427.748a3.313,3.313,0,0,1-.422.542,4.244,4.244,0,0,1-2.594,1.267,10.1,10.1,0,0,1-3.8-.181c-1.689-.3-1.689-1.267-1.93-2.835-.181-.844-.241-1.688-.362-2.533-.06-.482.121-2.111-.241-2.473-.181-.241-1.025-.121-1.387-.3a4.388,4.388,0,0,1-1.448-1.327,9.465,9.465,0,0,1-1.206-2.774c-.543-1.689-1.146-3.378-1.689-5.067a26.94,26.94,0,0,1-1.387-5.247c-.3-2.714,0-6.575,2.051-8.625,1.81-1.87,4.524-2.594,7.057-2.956a15.125,15.125,0,0,1,9.711,1.689,7.562,7.562,0,0,1,3.016,2.834c1.086,1.93,1.086,4.4,1.025,6.7l-.181,6.333c-.06,2.413-.3,5.247-2.051,6.574-.965.724-2.231.9-3.016,1.81-1.025,1.146-.9,2.834-.9,4.282A5.723,5.723,0,0,1,1637.915,3427.748Z" transform="translate(-155.937 -1710.662)"/>
        <path id="Path_308" data-name="Path 308" class="cls-15" d="M1547.577,3299.047a2.523,2.523,0,0,0-.241.6c-.362,1.146-.06,2.413-.422,3.5-.543,1.81-2.594,2.9-2.9,4.765-.241,1.508.844,2.955.965,4.463.121,1.689-.9,3.257-.664,4.946a10.869,10.869,0,0,0,2.051,4.584c-.3-.362-2.654-.181-3.317-.543a2.449,2.449,0,0,1-1.387-1.93c-.3-.965-.121-1.991-.6-2.956-.543-1.207-1.689-2.111-2.111-3.438-.6-1.81.362-3.74.241-5.61-.181-2.834-2.714-5.488-1.87-8.2.482-1.629,1.99-2.654,2.835-4.1a24.932,24.932,0,0,0,1.267-3.559,4.146,4.146,0,0,1,2.413-2.774,11.868,11.868,0,0,1,2.111-.3c1.206-.242,2.171-1.085,3.317-1.508,1.628-.6,4.584,1.026,5.609,2.353.965,1.387.543,2.533-.422,3.8-1.568,2.111-5.489,3.559-6.756,5.911Z" transform="translate(-76.818 -1608.983)"/>
        <path id="Path_309" data-name="Path 309" class="cls-15" d="M1738.446,3251.564a35.779,35.779,0,0,1,3.2,2.051c1.81,1.628,2.232,4.222,2.352,6.695.121,2.171,1.086,4.041.9,6.273a5.494,5.494,0,0,1-1.93,3.981c-1.508,1.146-3.921,1.387-4.524,3.2-.664,1.93,1.327,4.282.181,5.971-.664.9-1.93,1.086-2.9,1.749a8.143,8.143,0,0,0-2.172,3.076c-.6,1.086-1.568,2.232-2.835,2.292a10.055,10.055,0,0,1,.6-5.187c.422-1.025,1.809-2.956.724-4.042-.724-.9-2.292-1.146-2.413-2.292a2.227,2.227,0,0,1,.6-1.448,6.719,6.719,0,0,0,.362-5.972,8.584,8.584,0,0,0-4.343-4.282c-2.232-1.025-1.87-1.568-2.594-3.619-.664-1.93-1.749-2.353-3.5-3.016-1.568-.6-2.111-.965-2.714-2.413-.422-1.085-1.025-2.352-.422-3.559a7.344,7.344,0,0,1,2.171-2.352c1.749-1.388,3.679-2.9,5.911-2.775,1.267.061,2.412.6,3.679.664.844,0,1.629-.181,2.473-.241a6.816,6.816,0,0,1,4.041,1.085c1.146.845,1.146,1.689,1.81,2.9a3.664,3.664,0,0,0,1.327,1.387Z" transform="translate(-245.611 -1570.487)"/>
        <path id="Path_4-2" data-name="Path 4" class="cls-2" d="M41.488,86.871l19.494,16.08V0L41.488.417V33.7L0,0V26.9L41.325,61.274Z" transform="matrix(0.966, 0.259, -0.259, 0.966, 1381.535, 1677.785)"/>
        <path id="Path_311" data-name="Path 311" class="cls-16" d="M753.75,4485.541c.181-.061.3-.121.483-.181,1.508-.181,2.413.6,3.86.784.663.121,1.809-1.206,2.352.061.241.482.6,1.689,1.025,2.714a9.714,9.714,0,0,0,3.981,3.8c6.212,3.559,13.209,5.308,20.146,6.815a2.715,2.715,0,0,0,1.206.061c.724-.182,1.086-.9,1.448-1.569a52.468,52.468,0,0,1,5.489-8.5,20.465,20.465,0,0,1,6.7-5.971c2.714-1.327,6.092-1.628,8.685-.06a7.061,7.061,0,0,1,3.378,5.549c.362,5.609-7,9.228-10.8,12.123a95.158,95.158,0,0,1-11.4,7.48,3.865,3.865,0,0,1-1.568.6,4.281,4.281,0,0,1-1.749-.3,217.325,217.325,0,0,1-21.412-8.625c-1.93-.9-3.136-2.654-4.946-3.438-1.146-.482-2.413-.061-3.619-.3a12.153,12.153,0,0,1-3.679-1.508c-1.99-1.267-2.111-3.739-2.413-5.851a3.262,3.262,0,0,1,0-1.327,3.172,3.172,0,0,1,1.568-1.628c.362-.241.784-.482,1.206-.724Z" transform="translate(662.062 -2732.447)"/>
        <path id="Path_312" data-name="Path 312" class="cls-17" d="M1068.16,4131.861c.06-.242.181-.423.241-.664,3.136-9.831-7.66-17.37-16.044-12-3.921,2.533-6.574,6.575-9.108,10.556-3.137,4.945-5.971,10.134-9.108,15.079-4.885,7.78-13.088,7.117-21.291,5.248a74.1,74.1,0,0,1-5.851,11.278c5.851,2.714,11.822,5.429,18.155,6.7s13.209,1.025,18.939-1.991c4.524-2.412,7.962-6.333,11.159-10.253C1061.043,4148.689,1066.471,4140.849,1068.16,4131.861Z" transform="translate(421.357 -2389.443)"/>
      </g>
    </g>
  </g>
</svg>
