<svg id="_003-instagram-logo" data-name="003-instagram-logo" xmlns="http://www.w3.org/2000/svg" viewBox="0 0 30 30">
  <defs>
    <style>
      .cls-1 {
        fill: #444;
      }
    </style>
  </defs>
  <g id="Group_50" data-name="Group 50">
    <g id="Group_49" data-name="Group 49">
      <path id="Path_412" data-name="Path 412" class="cls-1" d="M23.036,26.216a3.175,3.175,0,1,0-3.179-3.181A3.185,3.185,0,0,0,23.036,26.216Z" transform="translate(-8.036 -8.036)"/>
      <path id="Path_413" data-name="Path 413" class="cls-1" d="M33.954,17.022V13.96h-.4l-2.664.008.01,3.063Z" transform="translate(-12.344 -5.579)"/>
      <path id="Path_414" data-name="Path 414" class="cls-1" d="M15,0A15,15,0,1,0,30,15,15.017,15.017,0,0,0,15,0Zm8.531,13.25v6.985a3.3,3.3,0,0,1-3.3,3.3H9.766a3.3,3.3,0,0,1-3.3-3.3V9.767a3.3,3.3,0,0,1,3.3-3.3H20.233a3.3,3.3,0,0,1,3.3,3.3Z"/>
      <path id="Path_415" data-name="Path 415" class="cls-1" d="M25.673,23.783a4.941,4.941,0,1,1-9.519-1.854h-2.7v7.4a1.731,1.731,0,0,0,1.731,1.73H26.272A1.732,1.732,0,0,0,28,29.325v-7.4h-2.7A4.874,4.874,0,0,1,25.673,23.783Z" transform="translate(-5.731 -8.994)"/>
    </g>
  </g>
</svg>
