<svg xmlns="http://www.w3.org/2000/svg" viewBox="0 0 30 30">
  <defs>
    <style>
      .cls-1 {
        fill: #444;
      }
    </style>
  </defs>
  <g id="_005-google-plus" data-name="005-google-plus" transform="translate(0 0.001)">
    <path id="Subtraction_3" data-name="Subtraction 3" class="cls-1" d="M15,30A15,15,0,0,1,9.161,1.179,15,15,0,0,1,20.839,28.821,14.907,14.907,0,0,1,15,30ZM11.534,9.478c-.148,0-.3.006-.447.019a6.144,6.144,0,0,0-5.865,6.175c0,.035,0,.074,0,.121,0,.065,0,.125,0,.181a6.158,6.158,0,0,0,4.168,5.545,6.438,6.438,0,0,0,2.054.331,5.824,5.824,0,0,0,4.614-2.109,6.87,6.87,0,0,0,1.252-4.946c-.912-.009-1.925-.013-3.187-.013l-1.872,0H11.4c0,.67,0,1.322,0,2.106.66.018,1.321.022,1.96.025h.02c.512,0,1.042.006,1.563.016a4.04,4.04,0,0,1-.729,1.416,2.911,2.911,0,0,1-1.279.926,3.54,3.54,0,0,1-1.437.3,4.014,4.014,0,0,1-3.2-1.607,3.454,3.454,0,0,1-.522-1.046A3.914,3.914,0,0,1,10.3,11.924a3.03,3.03,0,0,1,1.008-.169,5.16,5.16,0,0,1,2.648.884c.57-.533,1.09-1.093,1.568-1.618A6.3,6.3,0,0,0,11.534,9.478Zm10.786,8.85h.588v-.05c0-.466.006-1.1.012-1.712V16.56l.468,0h0l1.3-.007v-1.76H24.5q-.81,0-1.581-.011c0-.3,0-.594-.006-.882,0-.269,0-.581-.006-.884H21.151c-.005.532-.012,1.151-.015,1.766-.521.005-1.043.008-1.576.011H19.37v1.76h.1c.514,0,1.1.005,1.665.011,0,.3,0,.612.006.888s0,.581.006.878H22.32Z" transform="translate(0 -0.001)"/>
  </g>
</svg>
