<svg xmlns="http://www.w3.org/2000/svg" viewBox="0 0 71.79 256.595">
  <defs>
    <style>
      .cls-1 {
        fill: #2ec5b6;
      }

      .cls-1, .cls-2, .cls-3, .cls-4, .cls-5, .cls-6, .cls-7 {
        fill-rule: evenodd;
      }

      .cls-2 {
        fill: #404040;
      }

      .cls-3 {
        fill: #efbfa5;
      }

      .cls-4 {
        fill: #2b2b2b;
      }

      .cls-5 {
        fill: #757575;
      }

      .cls-6 {
        fill: #3bdccc;
      }

      .cls-7 {
        fill: #707070;
      }
    </style>
  </defs>
  <g id="Group_13" data-name="Group 13" transform="translate(-236 -966.384)">
    <g id="Group_13-2" data-name="Group 13" transform="translate(236 966.385)">
      <path id="Path_135" data-name="Path 135" class="cls-1" d="M5582.188,9823.538l3.306,2.883-2.921,11.146h-3.5l-2.075-8.147,2.768-6.419Z" transform="translate(-5514.296 -9588.543)"/>
      <path id="Path_136" data-name="Path 136" class="cls-2" d="M4394.608,7228l24.136,4.5-13.874,48.579,29.286,47.118-3.344,5.958-42.007-44.7-3.8-11.068,2.613-44.774Z" transform="translate(-4368.108 -7093.275)"/>
      <path id="Path_137" data-name="Path 137" class="cls-2" d="M5079.364,7228l-6.379,44.889-7.84,67.91-8.147-.653-4-68.563,2.5-43.352Z" transform="translate(-5010.436 -7093.275)"/>
      <path id="Path_138" data-name="Path 138" class="cls-1" d="M4160.449,5124.138c-.5,2-1.076,4-1.652,5.957a1.818,1.818,0,0,0-.077,1.268,1.742,1.742,0,0,0,.807.769,16.192,16.192,0,0,0,13.375,1.422c2.152-.73,4.151-1.921,6.341-2.536,3.689-1.077,7.533-.5,11.3-.27,3.728.192,6.957-.73,10.53-1.038,8.763-.73,11.107-1.153,19.447,1.46,0-15.757,3.228-27.9.807-42.737q-3.575-21.964-7.11-43.928a26.353,26.353,0,0,0-1.844-7.187c-4.612-9.838-15.488-11.722-25.1-8.917-4.918,1.422-8.8,6.957-11.222,11.261-3.074,5.5-4.766,11.684-6,17.833-3.8,19.216-3.92,39.047-7.725,58.263C4161.793,5118.566,4161.141,5121.371,4160.449,5124.138Z" transform="translate(-4150.436 -4977.076)"/>
      <path id="Path_139" data-name="Path 139" class="cls-3" d="M4918.332,4317.826a2.277,2.277,0,0,0,.345.577,4.644,4.644,0,0,0,2.46,1.383,11.032,11.032,0,0,0,3.728,0c1.691-.192,1.691-1.153,2.037-2.652a42.3,42.3,0,0,0,.768-4.919c2.422-.192,5.265-.729,6.3-3.189a7.829,7.829,0,0,0,.5-2.5c.346-3.5.691-7,1.037-10.531a10.346,10.346,0,0,0-.077-3.613,7.292,7.292,0,0,0-3.958-4.3,15.256,15.256,0,0,0-14.1-.423,7.75,7.75,0,0,0-3.075,2.613c-1.153,1.845-1.268,4.228-1.307,6.457-.039,2.076-.077,4.113-.154,6.188-.038,2.383.038,5.111,1.729,6.534.884.73,2.113,1,2.844,1.922.923,1.153.73,2.806.692,4.189a4.772,4.772,0,0,0,.154,2.229Z" transform="translate(-4875.652 -4264.462)"/>
      <path id="Path_140" data-name="Path 140" class="cls-4" d="M5227.938,4132.847a2,2,0,0,1,.23.615c.308,1.115-.038,2.345.231,3.459.461,1.769,2.421,2.96,2.574,4.8.154,1.5-.961,2.805-1.153,4.3-.192,1.614.73,3.229.461,4.843a10.337,10.337,0,0,1-2.191,4.343c.27-.346,2.614-.038,3.268-.346a2.485,2.485,0,0,0,1.46-1.807c.346-.961.192-1.921.691-2.882.615-1.191,1.769-2,2.229-3.267.653-1.729-.154-3.65.038-5.5.309-2.768,2.883-5.227,2.229-7.917-.384-1.576-1.845-2.69-2.575-4.151a19.166,19.166,0,0,1-1.077-3.574,4.159,4.159,0,0,0-2.19-2.843,17.145,17.145,0,0,0-2.037-.384c-1.152-.308-2.075-1.192-3.151-1.653-1.576-.653-4.535.769-5.572,2.076s-.653,2.459.23,3.728c1.46,2.113,5.188,3.689,6.341,6.072Z" transform="translate(-5171.769 -4105.425)"/>
      <path id="Path_141" data-name="Path 141" class="cls-4" d="M4649.858,4060.958c-1,.653-2.229,1.076-3.19,1.845-1.845,1.5-2.344,4.035-2.575,6.418-.192,2.114-1.269,3.882-1.192,6.111a5.369,5.369,0,0,0,1.691,3.958c1.422,1.191,3.728,1.537,4.266,3.305.577,1.922-1.5,4.112-.461,5.842.577.922,1.845,1.153,2.729,1.845a8.052,8.052,0,0,1,2,3.075,3.684,3.684,0,0,0,2.652,2.344,10,10,0,0,0-.346-5.111c-.385-1.038-1.614-2.959-.5-3.958.73-.846,2.306-1.038,2.42-2.152a2.615,2.615,0,0,0-.538-1.46,6.356,6.356,0,0,1-.038-5.88,8.2,8.2,0,0,1,4.458-3.958c2.229-.884,1.921-1.422,2.69-3.42.692-1.845,1.807-2.19,3.574-2.767a3.617,3.617,0,0,0,2.768-2.229c.5-1,1.076-2.229.576-3.42a7.447,7.447,0,0,0-2-2.383c-1.614-1.46-3.458-2.959-5.649-2.959-1.191,0-2.383.5-3.575.461a16.9,16.9,0,0,1-2.382-.346,6.083,6.083,0,0,0-4,.922c-1.191.73-1.191,1.614-1.922,2.729a4.491,4.491,0,0,1-1.384,1.307Z" transform="translate(-4616.094 -4043.182)"/>
      <path id="Path_142" data-name="Path 142" class="cls-4" d="M4376.417,3732.916c.307-1.307.307-3-.922-3.536-.653-.308-1.46-.077-2.152-.269-1.5-.423-1.883-2.268-2.575-3.651a1.474,1.474,0,0,0-.423-.538,1.642,1.642,0,0,0-.961-.038c-1.5.077-2.537-1.5-3.92-2.114a3.56,3.56,0,0,0-4.65,1.922c-.269.73-.308,1.537-.538,2.229-1.038,2.959-5.534,3.92-5.88,7.033-.23,2.114,1.691,4.266.73,6.149-.615,1.191-2.268,1.96-2.191,3.305a1.828,1.828,0,0,0,1.807,1.576,3.878,3.878,0,0,0,2.383-.884c1.115-.845,1.96-1.922,3.036-2.806a4.717,4.717,0,0,1,3.766-1.307c1.307.269,2.422,1.384,3.767,1.268,1.076-.115,1.921-1,2.959-1.191a8.76,8.76,0,0,1,2.959.423c1,.115,2.267-.308,2.345-1.307.038-.231-.039-.5.077-.73.269-.615,1.345-.5,1.614-1.153-.461-.845-1.23-.615-1.5-1.691a5.656,5.656,0,0,1,.269-2.652Z" transform="translate(-4337.273 -3722.481)"/>
      <path id="Path_153" data-name="Path 153" class="cls-5" d="M4995.555,6236.521a7.57,7.57,0,0,0,1.268.307,34.848,34.848,0,0,0,4.458.423c1.076.039,2.152.078,3.229.078,5,0,9.07-.5,9.377-1.115v-21.484a1.41,1.41,0,0,0-.039-.576.455.455,0,0,0-.192-.193c-.115-.038-.192-.115-.308-.153a14.489,14.489,0,0,0-3.382-.576c-1.806-.154-3.65-.231-5.5-.231a52.07,52.07,0,0,0-5.5.231,14.493,14.493,0,0,0-3.382.576c-.307.115-.653.269-.653.615V6235.6c0,.308-.038.5.192.73a2.811,2.811,0,0,0,.346.192Z" transform="translate(-4954.604 -6117.284)"/>
      <path id="Path_154" data-name="Path 154" class="cls-1" d="M5136.192,10125.573l-1.192,5.5,5.727.615,2.959-5.228.307-3.842L5136,10121Z" transform="translate(-5089.284 -9875.09)"/>
      <path id="Path_156" data-name="Path 156" class="cls-6" d="M5031.186,6230c-4.343,0-7.917.461-8.186,1.153a37.63,37.63,0,0,0,8.417.692,38.887,38.887,0,0,0,7.956-.538l.384-.077C5039.756,6230.5,5035.721,6230,5031.186,6230Z" transform="translate(-4981.588 -6133.63)"/>
      <path id="Path_157" data-name="Path 157" class="cls-7" d="M4797.834,6329.61c-2-1.883-4.612-3.113-7.187-2.075a6.378,6.378,0,0,0-3.8,5.149c-.615,4.728,5.034,8.647,8.839,6.841a.955.955,0,0,0-.807-1.729c-2.806,1.346-6.61-2.151-5.687-5.188,1.076-3.573,4.611-3.689,7.147-1.383a1.09,1.09,0,0,0,1.461-1.614Z" transform="translate(-4754.462 -6227.053)"/>
      <path id="Path_158" data-name="Path 158" class="cls-6" d="M5115.521,5810.116c.846.039.846-1.268,0-1.307a3.648,3.648,0,0,0-4.074,3.189,3.84,3.84,0,0,0,.807,2.729c1.076,1.537,3.766,3.267,1.153,5.111-.692.5-.039,1.614.653,1.115a3.6,3.6,0,0,0,1.614-3.766,3.982,3.982,0,0,0-1.153-1.922c-.5-.538-1.268-1.038-1.5-1.768a2.469,2.469,0,0,1,2.536-3.459Z" transform="translate(-5066.616 -5728.619)"/>
      <path id="Path_159" data-name="Path 159" class="cls-6" d="M5276.56,5844.116c.846.038.846-1.269,0-1.307a3.706,3.706,0,0,0-4.112,3.189,3.84,3.84,0,0,0,.807,2.729c1.077,1.538,3.767,3.267,1.153,5.112-.692.5-.039,1.614.653,1.114a3.6,3.6,0,0,0,1.614-3.766,4,4,0,0,0-1.153-1.922c-.5-.538-1.268-1.038-1.5-1.768a2.469,2.469,0,0,1,2.536-3.459Z" transform="translate(-5221.428 -5761.313)"/>
      <path id="Path_160" data-name="Path 160" class="cls-3" d="M4523.271,6340.6c-.038-.115-.077-.269-.115-.385-.461-1.152-1.691-1.191-2.382-2.075-.308-.384-.231-1.922-1.038-1.614-.308.115-1.307.385-2.306.73-.846-.038-1.729,0-2.575-.115-2.152-.27-6.149-3.5-8.032-.923a6.541,6.541,0,0,0-.922,1.576,4.609,4.609,0,0,0-.154,1.461c0,.384-.077,1,.192,1.229a5.211,5.211,0,0,0,1.614.346c1.076.23,2.152.461,3.228.653,1.038.23,2.268.577,2.575,1.614a4.569,4.569,0,0,0,.192.691,1.8,1.8,0,0,0,.5.577,9.968,9.968,0,0,0,2.421,1.537c1.576.73,4-.808,5.419-1.576a2.554,2.554,0,0,0,.96-.73,2.862,2.862,0,0,0,.422-1.845,5.274,5.274,0,0,0-.077-1.114Z" transform="translate(-4484.203 -6234.815)"/>
      <path id="Path_161" data-name="Path 161" class="cls-6" d="M3946.454,5128.368a13.7,13.7,0,0,0-.961,5.765,8.517,8.517,0,0,0,2.883,5.611,21.808,21.808,0,0,0,5.419,3.5,114.147,114.147,0,0,0,17.871,7.187c1.038-2.075,2.037-4.188,3.075-6.264a2.209,2.209,0,0,0,.308-1.614c-.154-.5-.692-.807-1.153-1.076-2.229-1.23-4.458-2.421-6.687-3.651-2.075-1.153-4.3-2.422-5.342-4.536-2-4.112,2.575-5.879,4.842-8.186,3.113-3.152,6.3-6.265,9.3-9.493,2.844-2.921,5.765-5.957,6.994-9.723,2.46-7.533-.077-12.8-7.187-9.685-4.5,1.96-7.879,5.458-12.606,9.8-6.418,5.88-13.682,14.143-16.795,22.368Z" transform="translate(-3945.473 -5042.528)"/>
    </g>
  </g>
</svg>
