<svg xmlns="http://www.w3.org/2000/svg" viewBox="0 0 114.113 98.523">
  <defs>
    <style>
      .cls-1 {
        fill: #dfa911;
      }

      .cls-1, .cls-2, .cls-3, .cls-4 {
        fill-rule: evenodd;
      }

      .cls-2 {
        fill: #fff;
      }

      .cls-3 {
        fill: #444;
      }

      .cls-4 {
        fill: #efbfa5;
      }
    </style>
  </defs>
  <g id="Group_65" data-name="Group 65" transform="translate(-1301.571 -2416.996)">
    <path id="Path_323" data-name="Path 323" class="cls-1" d="M8963.486,3241.837c2.021-1.46,4.435-1.853,6.793-2.189q17.766-2.61,35.7-3.929c18.242-1.291,37.158-1.459,54.166,6.455,2.808,1.291,6.063,3.985,5.389,7.465-.562,2.919-3.48,4.042-5.95,4.6-24.136,5.388-48.89,4.547-73.476,3.7-4.435-.168-37.215-5.837-22.621-16.166Z" transform="translate(-7649.938 -758.276)"/>
    <path id="Path_324" data-name="Path 324" class="cls-2" d="M9510.264,2517.223a3.09,3.09,0,0,0,1.348-1.067.512.512,0,0,0,.168-.393.787.787,0,0,0-.057-.505c-.166-.617-1.906-5.389-1.514-5.613a17.931,17.931,0,0,0,7.07-7.41c2.808-5.444,2.92-11.675,2.416-17.512-.787-8.42-3.705-17.625-11.508-20.712-6.006-2.357-13.473.224-18.3,4.659-6.177,5.782-5.22,15.212-3.931,22.564a28.4,28.4,0,0,0,6.85,14.313,18.919,18.919,0,0,0,6.566,4.547c1.234.5,2.357.393,2.7,1.572.448,1.515.223,3.7.393,5.332a.864.864,0,0,0,.279.729.921.921,0,0,0,.562.112,30.619,30.619,0,0,0,3.929-.056,7.894,7.894,0,0,0,3.031-.617Z" transform="translate(-8145.693 -29.678)"/>
    <path id="Path_325" data-name="Path 325" class="cls-3" d="M9745.105,2375.312c3.029,1.8,6.006,4.827,5.443,8.308,1.572-.786,3.594.785,3.816,2.525a6.463,6.463,0,0,1-1.908,4.828,4.4,4.4,0,0,0,4.322-2.582,12.027,12.027,0,0,0,.9-5.276c.111-5.333-.112-10.833-2.19-15.829-2.076-4.94-6.285-9.262-11.562-10.16a18.208,18.208,0,0,0-4.939,0,10.213,10.213,0,0,0-3.873,1.066c-9.485,5.5,6,14.819,9.936,17.12Z" transform="translate(-8378.906 70.529)"/>
    <path id="Path_326" data-name="Path 326" class="cls-3" d="M9174.192,2209.528c-1.572,4.154,2.188,8.756,1.233,13.078-.616,2.694-2.974,4.883-2.974,7.69,0,3.592,3.984,6.231,4.041,9.767-2.245-2.862-6.623-3.536-8.589-6.623a29.5,29.5,0,0,1-1.684-4.153c-2.357-5.726-8.645-8.477-13.921-11.676a4.911,4.911,0,0,1-1.627-1.4c-.787-1.347.056-3.087.729-4.49a24.312,24.312,0,0,0,2.076-14.089c-.672-4.546-2.693-9.037-1.8-13.527a11.148,11.148,0,0,1,8.027-8.419c3.593-.9,7.41.056,11-.786,2.358-.561,4.491-1.908,6.679-2.919,5.109-2.414,11.844-2.863,15.831,1.123,3.536,3.536,3.536,9.486,1.232,13.92-1.4,2.75-3.479,5.108-4.882,7.8-1.123,2.077-1.908,4.378-3.705,6.006-3.48,3.144-9.766,3.761-11.618,8.644Z" transform="translate(-7829.828 246.865)"/>
    <path id="Path_327" data-name="Path 327" class="cls-4" d="M10066.509,3652.829a1.593,1.593,0,0,1,.9.337c.785.561.561,1.74.729,2.694a4.381,4.381,0,0,0,.785,1.628q.844,1.347,1.685,2.695a1.147,1.147,0,0,0,.336.393,1.067,1.067,0,0,0,.449.112,6.173,6.173,0,0,0,4.717-1.4,6.488,6.488,0,0,0,1.851-4.435,9.938,9.938,0,0,0-.168-3.143,1.6,1.6,0,0,0-.336-.9,2.765,2.765,0,0,0-.617-.5,11.272,11.272,0,0,0-4.717-1.628,9.545,9.545,0,0,1-2.807-.505,10.688,10.688,0,0,1-1.684-1.066,23.461,23.461,0,0,0-3.423-2.133c-.226-.113-1.236,5.22-1.292,5.725-.112,2.245,1.685,1.74,3.536,2.133Z" transform="translate(-8691.16 -1145.188)"/>
    <path id="Path_328" data-name="Path 328" class="cls-1" d="M8830.785,3214.708c-1.348-.168-2.694-.224-3.985-.336a12.018,12.018,0,0,0-4.267.336,10.242,10.242,0,0,0-3.48,2.133c-4.546,3.873-9.374,11.394-4.152,16.39a12.96,12.96,0,0,0,5.78,2.807c5.782,1.628,11.676,2.75,17.569,3.817q23.66,4.378,47.319,8.7c1.01-3.312,2.02-6.567,3.03-9.879.843-2.694-21.44-13.135-24.023-14.257-10.217-4.435-22.453-8.588-33.791-9.823Z" transform="translate(-7511.063 -738.725)"/>
  </g>
</svg>
